<?xml version="1.0" encoding="UTF-8"?>
<svg version="1.1" viewBox="0 0 1600 1201" width="350" height="350" xmlns="http://www.w3.org/2000/svg">
<path transform="translate(0)" d="m0 0h1600v1201h-1600z" fill="#70CCC9"/>
<path transform="translate(1040)" d="m0 0h560v1199h-86l3-2-7-1-4-2v-2h-8l-3 2-13-1-6-4h-3v2h-9l-13-4v-1h-6l-4 1-6-2h-11l-6-1-1-1-2 2-8-1h-10l-2 1h-6l-2-1-13 2h-10l-3-1h-7l-7 2-4-1-21 2-12 2-16 1-83 6-16 1h-76l-34-2-38-4-22-4-14-4 4-1 15 3 43 5 22 1h62l34-1 21-3 20-5 5-3h3v-2l12-2 8-3 10-5h3v-2l11-6 1-6h-2v-2l-5-1-16-6-4-2v-2l-4-1-8-7-3-1-7-10-1-4h-2l-4-10-1-9 3-14 1-3-2-2-10-3-2-14-6-2-5-3v-2l-4-2-5-6-5-7-5-11-1-6-3-12-3-38-1-31 2-9h-2l1-6 3-5 2-7-2-9-4-4-3-2-2-12-3-11-2-9-4-7 1-5 3-1 2-4h-2l-1-4v-8l3-8 5-8 3-1 15-1h19l61-3 19-2v-2l-32 3-47 2h-13v-1l14-3-1-4-3-3v-2l-3-1 2-5 10-6 17-6 49-5 17-2-24 1h-27l-3-5-3-4-3-8-2-2-3-7-7-8-1-8 1-13-1-8 1-5-3-9-2-5-1-5-3-5v-7l2-14 2-2 11-3 7-1 1-5-4-2-4-4v-2h2v-2h5l1-1-5-1-6-4-1-2-10-1-7-10 1-9h-5l3-2 12-1-4-2-4-9-3-5-1-6-1-1-1-8-1-2 1-3 9-4 9-2-14 2h-7l-9-4-2-3 6-3h2l1-5 7-5 6-2 1-4-25-1v-3h-23l-9-2 2-6-1-7 7-3 5-10 1-5-3-17v-8l3-3v-2l-3-3-2-6 2-16 4-4-6-7v-7l5-1v2l3-1 1-4-6 1 2-14 7-8-1-10-5-5-5-2-3-1 1-7 6-1 4-2h4v-2l9-1 1-3-12-2 1-2-5 1-4-3v2l-8 1h-9l-9-6-5-9-1-3h2v2l4 1 2-9-4-6 1-4 6-2-3-4v-6l-4-2-1-5 2-2 9 11 3 5 5 5 2 4v2l4 1v2l5 1-5-8 1-4 13 13 3 1-2-5-11-11-8-7-2-4-3-1 3 5 2 1v4l3 1-3 1-4-2-7-8-9-11v-2h-2l-8-10-1-5h-3l-1-4 3-2h3l-1-5h4l5 5 7 3 5 3 1 4 7 1 2-1v-5l-3-3-7-1-7-5v-3l7-1 1-3 9 1v2l3 1-2 1v5h-2v3l6-1 1-3 1 4 4-1 2 3 1-7 4-1 3-2-4-4 3-4h8l-1 2-3 1 3 2 1 3 1 2 5 1 1 2 1-5-1-2 1-2-3-1v-9h4l-1-3 3-2-5-2v-3l-4 2v-2l-2-1 4-6-5 3-3-1-1-5h3l-2-2 3-4 13-3 9-3-16 2-7 1 4-4v-3l-7 2 1-4-4 5-2 3h-2l-1 2-10-4-2-3 10-4 34-10 12 1 1-4 12-4 3-2 6-2-6-1-2 2-9 3-14 2-9 4-18 6h-6v2l-13 4h-3l3-9 2-1-1-3 2-3 1 3 2-8 2 2-1-5v-2l9-2-1-3-4-2 4-4 12-7 4 2 1 4h2l-3-5v-3h2v-2h2l1-3 7-4h3v-2l7-4 6-4 4-2 1-2-6 2-4 4-7 3-9 6-6-1 3-9 4-2v-2l-3 2h-4l1-7-3 2-2 5-3 1-1-5h-2v2l-3 1v-2h-2l3 7-4-1-5-2-4-1 1 3 3 3v3h-3l1 4-6 2-1 4 1 4-3 3h-3l-2 4-6 4-4-1-1 2h-2l-1 4-2-1-2-4 8-8 1-3-3-2 3-5 9-9 5-4 1-4h-3l2-5 5-3 8-5-3-2 4-4 4 1-2-3 1-6 2-2 2-6 5-5 2-4h-4l-2 4-4 5-5 1v5l-6 9-9 13-4 6-2 1v-2h-2l-2 5-11-2 3-1v-2l3-3 8-18-11 17-2-2-1-17 8-17 1-4h-3l-3 10-6 13h-2l-1 7-3 4-4-1 1-7 1-3-4-1-1-3 5-18 1-9-2 1-5 17-4-4 3-14v-4h-2l-3 4-5-1v-5l-2-6 1-6-3 1-3 4-2-8-8-3v-6l4-1-1-8h-3v-5l-2-1-3-17 1-2h-2v-2l-8 2v-5h-2v-2l-8-1-1-2 1-2 8-2-2-5-5-3-5-9h-2v6l-2 2-3-2v-3l-5-2-8-5-9-3-4-2-1 5-4 1-1-1 1-7 3-3-4-7z" fill="#1E9E98"/>
<path transform="translate(1110,98)" d="m0 0h2v9l-1 4-1 18-1 2v9l2 1 2 9v27l3-3 1 4-3 6-3 13 3-3 2-8 2 4 4-1 4-4-1 6 4-1 2 3-1-6 2-1 2 2v2l4 1 1-4 2 5 3 1v4l-8 1-5-1h-4l-6 13-1-3 1-5-2 3-3 10-1-3h-3l-1-7-1 3-1 4v-2h-2v4h-3v6l2 1 2-3 3 2v2l2-1 2-4 3-2-1 5 4 1v-4l3-1 3-5 2-4 4 1-2 4h-2l-2 5 2 1-4 2-2 5h3l7-10 1-3 6 1-4 4 4 1v2l-8-1-2 4-1 4 1 3-5 1-1 2 5-1 8-7 2-3h2l2-5v-3l2 4h2l-2 4-4 4 3-1 2-3 5 1-5 5 4-1 3-2h4v-3l11-4 2-4 3-2 1-5h3v-2l-8 2-1 5-14 10-2-1 5-5h2l-1-4h4l1-3h3l1-4 5-5 5-3-1-5 4-4h2l1-5h3l-1-5-3-1v-3h6l4 3h2l-2-6 5 1v-2h2l2 4 2-1 2-5 3-2 1 3-2 5 7-2v2l-3 2-3 7-1 2h6l12-8 6-2 2-3 6-1-2 4-8 4-5 4h-3v2l-8 4h-2l-1 4-2-1v2h-2l3 6v2h-2l-3-5-6 2-11 7 3 2 3 3-4 3h-7l3 8-1 3-2-4-3 7-2-1-1 2 2 1-3 2-3 8 13-4h3v-2l9-2 23-8 1-1 14-2 10-4 5-1 5 2-4 2-7 2-3 2-10 3-1 3h-12l-38 11-5 2 3 3 8 3 4-4 6-7 1 2-1 3 5-2 1 4-2 3 17-3 4 1-10 4-13 3-2 3 2 3h-3l1 4 5-2h3l-4 6 2 2 3-1 1 3 6 1-4 4v2h-4l1 4v5l2 1 1 7-2 3-3-3-6-2 1-4-4-2 4-2-7-1-2 5 4 3-6 4-2-1v8l-4-3h-3l-1-3-1 2-6 1v-3h2v-5l1-1-2-1v-2h-9l-3 3h-5l2 4 8 4 5 1v2l3 1v5l-3 2-5-1-3-3-1-2-5-3-6-2-5-4-1-2-2 1v4l-5 2 1 4 3-1 2 8 6 6v2h2l10 13 3 3v2l3 1 2 2h2v-4l-4-2-1-4 4 1 4 6 13 12 5 5v4l-4-1-10-10v-2h-2l1 4 4 8-4-1-2-1v-2l-5-1-1-5-5-5-8-11-5-4 1 5 3 2 2 7 1 3-6 3 1 5 3 4-2 9h-3l-2-1v-2h-2l5 8 3 5 7 4h17v-2l4 2 7-1-1 2 10 2v4l-1 1h-9v2l-7 2v1h-7v7l5 1 6 4 2 3 1 10-7 8-2 12-1 2 6-1v5h-4v-2l-5 1 1 7 4 5 2 2-4 4-2 17 2 7 3 1-2 4-1 1v8l3 17-3 9-4 7-7 2 2 8-3 5 9 1h20l3 1v3l7-1 18 1 4 2-4 1-4 4-8 4-2 2-1 4-6 3v2l9 4 14-1 4-1h8v1l-17 4-6 2 1 5 1 8 2 4 1 5 4 7 1 5 5 1-1 2-12 1 2 1 1 7h-2l7 11 10 1 2 3 10 5-1 2-5-1v2h-2l6 7 2 1 1 4-2 2-7 1-11 3-2 3v7l-1 5v7l4 7 1 7 2 3 2 10-1 3 1 11-1 12 2 6 7 8 3 7 3 5 3 7 3 3v3l47-2h12v1l-62 7-12 1-17 6-8 5h-2l-1 5 8 8-2 3-9 2 33-1 35-2 7-1h12l3 3-39 3-51 2h-12l-18 1-2 5-4 7-1 4v12h2l-2 5h-3v6l4 6 4 18 2 6 1 8 6 4 2 5 1 7-4 9-3 8h2l-1 16 1 27 3 35 3 12 2 9 5 9 7 10 5 4v2l5 2 6 3 2 5v9l10 2 3 4-4 16 1 10 3 6v3h2l6 10 2 4 4 1 8 7 3 1v2l4 1 16 6 5 2v2h2v6l-9 6h-3v2l-11 5-3 2-14 3h-5v2l-8 4-20 5-21 3-34 1h-62l-22-1-43-5-16-3 21 5 28 4 37 3 19 1h76l99-7 17-1 11-2 24-2 2 1 6-2h7l6 1 13-1 8-1 3 1h5l3-1h12l5 1v-2h2v2h17l6 1v2l4-2h7l1 2 13 3 7 1v-2l4-1 5 4 13 1 3-2 8 1 3 3h6l5 2v1l80 1v2h-1600v-60l49-1 172-2h78l26 1h122l72-1h301l171-2 36-1 8-9 9-16 5-11h2l2-9 6-9 11-10 6-8 13-10 7-10 4-9h2l3-22 1-1v-79l-3-9-6-5-1-3v-7l3-6 6-5 2-5 1-26 2-5 3-19 1-2-3-4-1-7-1-5-15-1-74-2-49-3-31-4-15-4-6-4-1-3v-13l2-9 3-2-10-1-12 6-11 7-13 6-3-1 8-6 14-6 9-8 6-3-20-1h-4l-6-13v-14l2-4h4l-5-8-2-9 2-3 9-3v-6l9-6h6l7-3 4-6h2l2-4 7-3 3-3 3-1 20-1 3-1v-2l6-4 6 1 9 2 6 4v2l4-1-1-2 1-29 1-40v-34l2-35 5-2 35-3 2-1v-9l-1-2v-34l-2-20v-6l1-1v-6l-1-2v-12h2l-1-58 8-2 24-2v-3l29-1 41-1 6-1-3-12-5-18-2-6-4-13-3-9-7-17-4-13-4-10-1-4-3 1 4 12 1 1-1 8h-1l-1-7h-2l-5-14-1-1-1 6h-2v-9l-5 1v3h-6l-4 4-1 4h-5l-4-3v-6l-4-3-5-2v-4h6l-2 2 3 2v-2l9-2-2-2-18 1-35 1v-2l6-1 26-1 3-3v-3l7 2v2l4-1v2h5v-3l-13-2-16-6-1-3 6 1v-2l5 1-4-7-6-2v-4l-4-2-4-8v-2h-2v-6l3 1 2 5 5 3v2h3l3 3v2l10-6h2v2l6-1-1-5 2-1 2 3 4-1-3-10-3-3-3-4 1-2 7 5 8 2v2h-3l-1 3-1-3h-2l6 15 3 4 3-3 2-1 2-4 2 1-2 6 3 2v-2h6v-3l5-1 1-2h2l2 3 1-6-9-1-2-1-1-4v-9l2 2 2-6h-4v-3l4-1 1-10h-4v-2h-3v7l-2-1-1-5h-7l2 5v8l-2-1-3-11-2 2-2 5-1 7-5 1-2-2 1-5 7-12v-2l-3-2h7l1-3 4 1 7 5-1-3h2l-2-17-4 2-2-4 2-5h3l-1-8-2-5h2l-3-14-2-7h4l2 4v7l4 7 3 11-1 3-4-9 1 13 1 2v11l1 13 10-2v-9l-4-1-1 3-1-1-2 3-2-4 3-3 4-1-3-5 3 1 1 2-1-8-1-3 2-4h2v-3h-6v-3h3v-8l2-12 2-31zm-49 129 2 2h-2z" fill="#E6D9DB"/>
<path transform="translate(1594,620)" d="m0 0h2l2 6 2 1v572h-86l3-2-7-1-4-2v-2h-8l-3 2-13-1-6-4h-3v2h-9l-13-4v-1h-6l-4 1-6-2h-11l-6-1-1-1-2 2-8-1h-10l-2 1h-6l-2-1-13 2h-10l-3-1h-7l-7 2-4-1-21 2-12 2-16 1-83 6-16 1h-76l-34-2-38-4-22-4-14-4 4-1 15 3 43 5 22 1h105l33-3 17-3 16-4 15-5 4-2 1-4 6-6h2v-2l3-2 8-1 1-6-2-6-9-4-11-4-12-7h-2l-2 2-5-3v-2l-4-2-8-7-6-13-2-7v-8l1-6h4l-1-7-3-3-7-4-2-2-3-9-9-6-7-4-5-4-1 2-5-5-5-10-4-10-2-41v-54l6-7 4-2-2 6-1 2v27l2 43 3 22 5 14 7 11 8 8 4 1 1-4v-4l10-5 5-2 5-1 2-1 2-7-2-1 3-1 3 1 7-4 1-1 4-2 2 1v3l7 1 3-1 1-4 2-3 5-1 3-6v-4h2l4 6 3-5v-6l4-4-1-2 1-2-3-1-1-2v-6l3-1 3-3 3 7 1 1 4-10 2-10 1-3 7-6 2-6 5-3 1-4h3v-6l1-2h-2v-4-3l-6 3-1-2v-6l6-10 2-1 5-10 4-1v4h-2l-1 5 2-1 3-5 3-3h2l2-4 1 3h3l1-5 3-5h-2v-5l6-2h2l1-7 4-5 2-4 4-2 3-3h3l2-4 4-1 1-4-3-2-1-6h4l1-5-2-3v-7l3-5 4-5 2-5 4-2v-4l-3-2-1-6 5-5h2v2h4l-1-7v-3l-2-1-1-8 5-4 4-2 2-4 2-7 5-9v-15h2v-9l6-2 3 2 1-3-1-4h2v-5l2-3h2v-2h2l1-9 4-5 8-5 5-3 4-4 1-2-5 1-1 4h-2l2-9 3-5 5-8 3-2h7l1-2h3l2-6-4 1 3-5 3 2h4l1-3 5-5 2-1v3l9 2 8-2 2-7 4-1 2-3 4 1 3 2 3-1v-2l-2-1 5-1v-6l9-3h5l2 2 5-1 2 4 3 1 1-4h2l1-4 2-1h6l2 3-1 3 6 1 1-2 3-2z" fill="#118E88"/>
<path transform="translate(1105,866)" d="m0 0h1v10l1 8-1 10-4 6-4 5-1 3v7l1 3 6 5 3 9v79l-1 1-3 19-1 3h-2l-1 5-6 10-5 6-13 10-7 9-10 9-5 9-2 7h-2l-3 9-8 15-8 10-3 3-36 1-68 1-103 1h-302l-71 1h-131l-27-1h-70l-170 2h-49v-104l3 1 2 3v3h4v-5l4-2h5l1 1v6h9l7 1h2l2-4 4-4 3-5 2-5 4-1 7 10 4-1 7 4 2 2h5l3-3h3l1 6h2l4 9 4 2h5v-2h7l5 2 2-4h9l5 5 7 1 1-3 1 2 7 1 1 5 4 1 4 4 6-1 5-5h6l1 7 1 5 6 3 4 4 3 9 5 2 9-1 10-3 11-3 8 6 9 4 7 2 5 5 1 5 5 2 5 3 9 3 3-2 5 1 4 4 3 9h10l2-1h8l6 3 1-2 3 3 3-5 4-1v-2l3-1 5 2 3-3 12-2 1-6 3-4h8l6-3 5-1v-3l3-2 6 1 3 5h3v2l5-2 5-5 10-2 7-6 6-1 3 1 4-10h7l3 3 6-1 4-7 9-1 6-4 4-2 3-1 2-5 9-2h2l-1 3 4-1 3-2h11l-1-6 11 1 3 1 3-1v-7l7-5 9 1 8 1 4 4v5l10-2 3 3 9-1 6-1h3l1-3 10-2 6-2 3-3 7 1 4 6 9 1-1-2 8 2h9l4 5 7 3-4 4 6 3 4 1h8v-4l6 1h13l3-2h8l17-5 3-4 2-6 6 1 8 7 1 4 6-1 7-2 6 2 7 6 10 1 1-5 7-1v3l5-2 1-3h5v-2l8-5h6l4-5h11l9 4v-5l3-3 9-6v-2h2l1-3 4-1 8-4 6 1v4l6-3h2v-2l7-3 5-1 1 3 12 3 7 1 9-3 1-7 2-3 5-1 7-4h2l1-6 5-5 9-3 5-4 9-1 2-6 4-3 4-1 5-5 2-1 2-5 4-2 5 1 1 2 14-1 5 3 5 5 6-1v-2h2v-2l7-1 3-2 13-1 15-6 1-6h2l2-5 3-9 1-5 4-9 1-7 1-5 7-5 7 1 5-3 3-11 1-9 3-3 10 1 3-4-1-5-2-7 2-4 13 1v-2z" fill="#37ACA7"/>
<path transform="translate(1031,1131)" d="m0 0v3l-11 9-14 9-6 5-3 6 1 7 4 6 6 4 6 2v2l21 5 28 4 37 3 19 1h76l99-7 17-1 11-2 24-2 2 1 6-2h7l6 1 13-1 8-1 3 1h5l3-1h12l5 1v-2h2v2h17l6 1v2l4-2h7l1 2 13 3 7 1v-2l4-1 5 4 13 1 3-2 8 1 3 3h6l5 2v1l80 1v2h-1600v-60l49-1 172-2h78l26 1h122l72-1h301l171-2 36-1z" fill="#75CDCA"/>
<path transform="translate(1237,352)" d="m0 0 2 1-8 5-2 1v3l-10 4v2h-2l-1 2h-6l-11 6-8 3v1l20 2h23l-17-5 1-4 15 5 8 1v2l6 1-1 3h2v-4l-3-1 4-1 3 1v-2l-9-1-4-2 1-3 8 4 8 2-1-5 5-1 2 1-1-7 3 2 1 4 4-1 1-4-2-1 4-1 8-13h2l-1 4-6 9v4l-3 6 3 1v3l4 1-1 2h5v1h-9v6l6 7-4 1 10 21 10 8v2l-5-2-4-1-3-5-2-1 1 7-4-3h-2l-3-5-5-1-1-8v-2l-2-12-1 1 2 13 1 3-4 4 1 5 2 2 2 7v16l-1 37 3-1 7-9 7-6 4-6 6-2 1-2h12l2 1v2l4 1 1 2-15 2-3 2v2l10 1-1 3 4-2v-3h13l2 2 1 2h10v3l-4 3 3 9 5 5 7 13v2l4 1 1-2 5 2v12l-2 7h-2v2l-4 4-3 6-5 4-4 5-4 3-2-1v-2h-7l-7 4-1 2 11 4 5 5v2l-5-2-9-6-4-1v6l-2 6 2 3-1 23v132l1 31 39 3 18 3 11 4 5 3 2 5v15l-2 10-7 6-14 4-35 5-22 2h-15v-2l-32 3-47 2h-13v-1l14-3-1-4-3-3v-2l-3-1 2-5 10-6 17-6 49-5 17-2-24 1h-27l-3-5-3-4-3-8-2-2-3-7-7-8-1-8 1-13-1-8 1-5-3-9-2-5-1-5-3-5v-7l2-14 2-2 11-3 7-1 1-5-4-2-4-4v-2h2v-2h5l1-1-5-1-6-4-1-2-10-1-7-10 1-9h-5l3-2 12-1-4-2-4-9-3-5-1-6-1-1-1-8-1-2 1-3 9-4 9-2-14 2h-7l-9-4-2-3 6-3h2l1-5 7-5 6-2 1-4-25-1v-3h-23l-9-2 2-6-1-7 7-3 5-10 1-5-3-17v-8l3-3v-2l-3-3-2-6 2-16 4-4-6-7v-7l5-1v2l3-1 1-4-6 1 2-14 7-8-1-10-5-5-5-2-3-1 1-7 6-1 4-2h4v-2l9-1 1-3-12-2 1-2-4 1 3-3 21-12-4-3v-2l2-1-1-3 5 1v-3l6 6 6-2 5-1z" fill="#BBA0A0"/>
<path transform="translate(1063,384)" d="m0 0h30l29 2 2 2-3 1 2 3-5 4-3 2 21 3 7 5v7l-3 9-5 2-5 4-2 2-7-1v1l-20 1-1 2-4-1-2 6-3 3 5-2 4-2v-2h3l1-3h14l8 1 5 1 1 1-1 9-2 6 2 16 3 3 1 11 1 5-3 5-1 5 9-4 2-4h4l-2 7-16 8-1 3 2 11-2 7h-4v2l-5 2v2l-3 3 3 4-2 13 5 6 9 1 2 1v2l5-1 2-5 10 3 4 2 9-2h5l1-3-4-1h9l-3 3 1 1h21l6-3 2 2v3l-15 5-10 1h-17l-6 3-3 4-15 4-4 3-6-1-7 3h-6l-1 5h-2l-2 5 12-2 18 1 9-2h6l3 3-22 9-4 2-4 4h-3l-2 5-2 4v18l2 15 2 3 10 3 9 10 1 5v1h-15l-16-1 6 3 4 5 1 2-1 16 8 1 2 4 5 2h4v2l-3 2h-3l-1 6-2 4-3 21-2 4h-2l-2-7 1-4-10 8-2 9v2l2 1-1 4 3 2v2l4 2 5 9 5 4v6l5 1 3-2 4 1 1 1v5l12-3 2 3v4l-28 3h-4l-2 4-1 1h-7l-2-2-5 2h-22l-12 4h-3l-2 6-6 7-14 3-18 1h-35l-32-2-27-4-9-3-3-4-1-4v-18h3l1-3h16l6 2 33 2 33 1 17 1 43 1-1-3v-13l-2-7-5-11-4-6-9-11-8-6-3-3-5-1v11l-2 3-4-9-9-9 2-2 16-5h3l-1-1-16 4-5 3-6-4-6-2-7-17-2-7-2-1-2 13h-4l-2-9-5-5v-2h2l-1-2 1-29 1-40v-34l2-35 5-2 35-3 2-1v-9l-1-2v-34l-2-20v-6l1-1v-6l-1-2v-12h2l-1-58 8-2 24-2z" fill="#F5EDEC"/>
<path transform="translate(1451)" d="m0 0h149v492h-11l-1-3v-11l-4-5v-2l-2-1 2-7 2-13 1-7h-8l-8 3-4-1-1-6 1-2 4-1-1-5-2-1 1-6-5-5-1-7-1-1-2-22-1-6v-7l-3-8 1-3h-2v-2l-5 2-6-1v-2l-5-2-10-7-1-3 1-4 6-2 2-9-5-3-1-4 3-3 5-2 1-7-1-9-3-3-7-2-5-1-4 3-2 1-2-7-1-1v-8l6-2 4 2v2l5-3-1-6h2l1-2 6 1h3l1-2 2 4h3l1-4-3-5-5-5-7-4v-4h2l-1-3-2-1 1 3-2 5h-2l-2 9-4 5-1 4h-7l-1-4-3 1v2l-12 3-3 3-5-3v-2h-3l1-4 1-2h6l-1-7 6-7 6 2 1-4 4-6-1-5-9-2-6 1-5 5h-5v-6l-1-4 1-3 5-1v-2h2v-6l-2 1v-4l-8-4-3-1-2 4-2 1h-7v-9h2l1-5 3-2v-4h-6l-2-5-4-1h2v-8l-2-3-1-4-1-3v-16l1-6-3-7v-3l-1-4-4 1-3-11v-12l2-5-3-2v-10l-5 2-10-2v-5l3-1v2l6-2 2-2h2l1 2 1-3-1-4-5-5v-2l-2-1 10-5h2l-6-9-3-4v-10l3-5 6-2 4-1 1-1v-16l-1-4 2-4h-2l-1-4-2-3-1-7h2v-5h-2l-4-1v-6z" fill="#118F89"/>
<path transform="translate(1272,169)" d="m0 0h4l-1 3-14 7h-4v2l-19 9h-2v2h-2l4 9 6 1 5-5 5 1 1 1v10l-2 7 5 1 8-4 5 2 4 8v2h2v5l5 2v2l4 2 1 2 1 11 4 2 1 6 1 7 9 9-1 4-5 2-5 14v5l4 1v8l-3 6 1 9h2v2l7-1 1-3 6-1 1 2v9h9l3 2v2h5l-3 2-5 1v2l-3 3-7 1-2 7h2v2h2v2h4v-2h2l1 5 5 10v12l5 1 11-1 1-2 5-1h4l1-2h2v2l6-2 5-7 13 2 2 3 1 7-3 10h-5l1 4 6 2h5v-6l-2-3 4 2 1 6-3 3h-3l3 6 10 11 1 11 2 6-3 3-1 4 1 4 3 1 1 6h-2v14l4 5 3 1 3-3 2 1-1 2h-2l-2 5-5 3h-3l1 7v2l5 1-4 2-3-1-1 3 6-1v3l-3 3v3l3 1-1 3-3 4 2 1-3 5v8h-2l-4 10-2 14-2 5h-2v2h-2l1 3-1 11-5 3h-4l1 4 3 2v2l4 2 1 4-3 2h-5v2l-6 3-2 7-4 1-1-1v-10l-4-7-4-3h-11l-2 1-1-4 1-7 2-3h5v2l4 1v2h5l2-12 4-2h4v-6l-7 1h-8l-6-4-4 2-1 2 2 5-1 4-2 2-2-1-1 2-1-4-1 3 2 3-4-2-3-2v-2l-4-1-8-3 5-5 4-2h7l2 3 6-5 5-5 2-3 1-3 4-5h2v-2h2l1-7v-12l-4-1-3 1-3-3-7-13-5-5-3-9 5-5h-8l-5-3v-2l-13 1v3l-4 1v-2l-9-1v-4l3-2 14-2-4-2v-2l-14-1-1 3-6 2-5 7h-2l-2 4-5 5-4 6-3-1v-53l-3-8-2-3 1-5 3-3-2-5v-10l-2-1 3-1 2 7 1 6 1 5v5l5 1 2 5h2l1-2 2 4v-6l4 2 2 3 5 2 3 2-5-5-6-5-10-21 4-1-6-7 1-6 4-1v-2l-3-1-1-3-2-1 2-5-1-2 5-9 4-7-4 4-6 10-2 1v5l-5 1-3-6 1 7-8-1 1 5-10-2-6-3v2l12 3v2h-6l2 1v4h-2v-2l-5-2v-2h-8l-12-4-3-2-1 4 11 2 8 3v1h-25l-20-2v-3l10-4 9-5h6l3-1-1-3 6-2 5-2-2-2 11-6-12 5-8 2-2-1-1 2-6-6 1 3-6-2 2 4h-3v2l5 2-5 5-14 7-7 4-4-3v2l-8 1h-9l-9-6-5-9-1-3h2v2l4 1 2-9-4-6 1-4 6-2-3-4v-6l-4-2-1-5 2-2 9 11 3 5 5 5 2 4v2l4 1v2l5 1-5-8 1-4 13 13 3 1-2-5-11-11-8-7-2-4-3-1 3 5 2 1v4l3 1-3 1-4-2-7-8-9-11v-2h-2l-8-10-1-5h-3l-1-4 3-2h3l-1-5h4l5 5 7 3 5 3 1 4 7 1 2-1v-5l-3-3-7-1-7-5v-3l7-1 1-3 9 1v2l3 1-2 1v5h-2v3l6-1 1-3 1 4 4-1 2 3 1-7 4-1 3-2-4-4 3-4h8l-1 2-3 1 3 2 1 3 1 2 5 1 1 2 1-5-1-2 1-2-3-1v-9h4l-1-3 3-2-5-2v-3l-4 2v-2l-2-1 4-6-5 3-3-1-1-5h3l-2-2 3-4 13-3 9-3-16 2-7 1 4-4v-3l-7 2 1-4-4 5-2 3h-2l-1 2-10-4-2-3 10-4 34-10 12 1 1-4 12-4 3-2 6-2-6-1-2 2-9 3-14 2-9 4-18 6h-6v2l-13 4h-3l3-9 2-1-1-3 2-3 1 3 2-8 2 2-1-5v-2l9-2-1-3-4-2 4-4 12-7 4 2 1 4h2l-3-5v-3h2v-2h2l1-3 7-4h3v-2l7-4 6-4 4 1-1 5 4 1 9-2 16-8z" fill="#37ACA7"/>
<path transform="translate(1117,888)" d="m0 0 5 2 5 4 9 2v7l10 9-1 4-4 3h-2v2l-5 2 2 5 4 3 6 3 3 3 3 13 2 31 3 21 1 6 4 14 3 16 1 7 4 2 4 6v2h2l4 6 5 4 2 4v12l8 4v6h-2l-2 4h-2l-2 4-2 5-2 4v5h2l3 7 2 8v2l4 2 3 4v2h2l5 6 7 6 6 4 11 4 1 4-5 6h-2v2l-13 5-16 2-8 2-33 4-17 1-10 1-7 2-15 2h-56l-22-3-10-2-12-6-5-6-2-4 1-7 4-6 12-9 9-6 9-7 3-6 8-13 7-15h2l2-9 6-9 11-10 6-8 13-10 7-10 4-9h2l3-22 1-1v-79l-3-9-5-6-1-8 2-5 6-3 5-10z" fill="#DEE6E5"/>
<path transform="translate(1569,960)" d="m0 0 1 2 2 1 1 2 8-2 4 2v9l9 2 4-4h2v156h-157l-16-1-2-5-1-11 1-5 5-5 6-7 3-9h2l3-16 4-2 3 2v-5l-2 1 1-5 4-2 2-3 5-3 5-6 2-8 9-18 8-8 4-1 1-3 1-19v-3l4-10 3-1 1-9 3-1 2 1v3l6 2 3 2h6l1-3h-2l1-5 4-1 2 2 7-1 2 7 7-1 2-1 1-5 3-2 6 1-2 4 3 2h5v-2l4-1v4l8 3 1-3-6-1z" fill="#12766F"/>
<path transform="translate(1257,393)" d="m0 0 4 2 4 1 2 13 1 3-4 4 1 5 2 2 2 7v16l-1 37 3-1 7-9 7-6 4-6 6-2 1-2h12l2 1v2l4 1 1 2-15 2-3 2v2l10 1-1 3 4-2v-3h13l2 2 1 2h10v3l-4 3 3 9 5 5 7 13v2l4 1 1-2 5 2v12l-2 7h-2v2l-4 4-3 6-5 4-4 5-4 3-2-1v-2h-7l-7 4-1 2 11 4 5 5v2l-5-2-9-6-4-1v6l-2 6 2 3-1 23v132l1 31 39 3 18 3 11 4 5 3 2 5v15l-2 10-7 6-14 4-35 5-22 2h-15v-2l-3-1-3-3v-12l3-5 8-4 20-3-1-3 19-3 27-6-22 3-21 2-22 1h-12l5-7 2-1 1-3v-10l-3-5-2-11-1-15-1-51-1-8-2-6v-3l-4-1-7-3 1-2 4-4 3-8 1-9 2-12 2-7v-14l1-15 1-2-1-6h-2v-4h2l-2-4-1-4-3-6-4-2-1 2-6-2-6-3-11-1-3-3v-2l10-6 3-2-2-1v-2l-4-2-9-7 3-1 4-1 3-1 1-7-2 4h-3l-1-5v2l-1 5-5 2-1-5h2l-1-6h-2v-6l5-4 7-4h-1l-7 3-5 4-4 3-3 8h-2l-2-6v1l1 6-7-2-2-5-2-3 7-1 6-8 3-8-2-8 1-8 2-8 2-5 1-8 1-9 2-17 1-8-2-16-5-6-3-3v-2l6 3h12l1-4z" fill="#8B5364"/>
<path transform="translate(1231,789)" d="m0 0 4 1-2 2-12 4-8 5h-2l-1 5 8 8-2 3-9 2 33-1 35-2 7-1h12l3 3-39 3-51 2h-12l-18 1-2 5-4 7-1 4v12h2l-2 5h-3v6l4 6 4 18 2 6 1 8 6 4 2 5 1 7-4 9-3 8h2l-1 16 1 27 3 35 3 12 2 9 5 9 7 10 5 4v2l5 2 6 3 2 5v9l10 2 3 4-4 16 1 10 3 6v3h2l6 10 2 4 4 1 8 7 3 1v2l4 1 16 6 5 2v2h2v6l-9 6h-3v2l-11 5-3 2-14 3h-5v2l-8 4-20 5-21 3-34 1h-62l-22-1-16-2v-1l46-1 20-3 7-1 16-2h8l22-3 15-2 10-2 11-2 6-1 1-2h3v-2l5-5 1-5-11-3-10-7-8-8v-2h-2l-5-7-3-3v-3l-2-2-1-6-1-4h-2l-1-5 1-6 5-5 5-6h2l-1-6-8-4v-12l-3-5-6-5-1-4h-2l-4-6v-2l-5-2-4-24-5-15-1-9-3-29-1-18-3-13-5-4-6-3-3-3v-4l5-2v-2l4-3h2l-1-5-9-8 1-7-9-1-6-5-4-1-7 3-5 10-3 2h-3l-1 10 1 5-2-1-1-3v-7l3-6 6-5 2-5 1-26 2-5 3-19 1-2-3-4-1-7-1-5-15-1-74-2-21-1v-1h126l21-1 15-2 5-4 4-4 3-5 6-4 17-3 9-3 12-2z" fill="#B1B7B2"/>
<path transform="translate(1218,554)" d="m0 0 4 2-11 6-2 2-1 4-6 3v2l9 4 14-1 4-1h8v1l-17 4-6 2 1 5 1 8 2 4 1 5 4 7 1 5 5 1-1 2-12 1 2 1 1 7h-2l7 11 10 1 2 3 10 5-1 2-5-1v2h-2l6 7 2 1 1 4-2 2-7 1-11 3-2 3v7l-1 5v7l4 7 1 7 2 3 2 10-1 3 1 11-1 12 2 6 7 8 3 7 3 5 3 7 3 3v3l47-2h12v1l-62 7-19 1-17 3-10 1-12 4-13 2-7 5-2 5h-2l-4 5-3 2-18 2h-13v-1h8l-2-12 5-5 14-5 14-1 9-3 13-2 28-3-43-1-1-1-2-11-3-3-7 2-2-2-5-18 1-30v-16l3-7 1-4-6-13 1-6-6-4-4-3 26-1 3-1-1-3-6-1-5-6-7-6-2-9-2-6-2-10-3-9v-7l1-5 3-12 6-4 18-6v-2l-5 1-11-2-6 1-10-3v-5l8-2 22-3 11-1v-2l16-2 1-4 9-3 7-1z" fill="#E1D1CD"/>
<path transform="translate(1040)" d="m0 0h127l-1 6-6 10 1 6 2 5 2-4 2-2 11 2 14 5 3 2 7 1v2l2 1h-6l-9-3-7-1v6l2 2 7 1 3 5-1 4-2-1 2 4 1 3-1 6-6-2-7 1-1 5 14-3 5 5 4 3 6 2 2 3-1 2v10h6l1-1h5l1 2-1 2h-2v9l-2 8 2 1-2 8 1 2h-2l1 3v5l4 3-1 17 4-1 1-3 4 5v7l3 1-6 7-1 9 3 3 4 2-10 5-9 6-6-1 3-9 4-2v-2l-3 2h-4l1-7-3 2-2 5-3 1-1-5h-2v2l-3 1v-2h-2l3 7-4-1-5-2-4-1 1 3 3 3v3h-3l1 4-6 2-1 4 1 4-3 3h-3l-2 4-6 4-4-1-1 2h-2l-1 4-2-1-2-4 8-8 1-3-3-2 3-5 9-9 5-4 1-4h-3l2-5 5-3 8-5-3-2 4-4 4 1-2-3 1-6 2-2 2-6 5-5 2-4h-4l-2 4-4 5-5 1v5l-6 9-9 13-4 6-2 1v-2h-2l-2 5-11-2 3-1v-2l3-3 8-18-11 17-2-2-1-17 8-17 1-4h-3l-3 10-6 13h-2l-1 7-3 4-4-1 1-7 1-3-4-1-1-3 5-18 1-9-2 1-5 17-4-4 3-14v-4h-2l-3 4-5-1v-5l-2-6 1-6-3 1-3 4-2-8-8-3v-6l4-1-1-8h-3v-5l-2-1-3-17 1-2h-2v-2l-8 2v-5h-2v-2l-8-1-1-2 1-2 8-2-2-5-5-3-5-9h-2v6l-2 2-3-2v-3l-5-2-8-5-9-3-4-2-1 5-4 1-1-1 1-7 3-3-4-7z" fill="#37ACA7"/>
<path transform="translate(1110,98)" d="m0 0h2v9l-1 4-1 18-1 2v9l2 1 2 9v27l3-3 1 4-3 6-3 13 3-3 2-8 2 4 4-1 4-4-1 6 4-1 2 3-1-6 2-1 2 2v2l4 1 1-4 2 5 3 1v4l-8 1-5-1h-4l-6 13-1-3 1-5-2 3-3 10-1-3h-3l-1-7-1 3-1 4v-2h-2v4h-3v6l2 1 2-3 3 2v2l2-1 2-4 3-2-1 5 4 1v-4l3-1 3-5 2-4 4 1-2 4h-2l-2 5 2 1-4 2-2 5h3l7-10 1-3 6 1-4 4 4 1v2l-8-1-2 4-1 4 1 3-5 1-1 2 5-1 8-7 2-3h2l2-5v-3l2 4h2l-2 4-4 4 3-1 2-3 5 1-5 5 4-1 3-2h4v-3l11-4 2-4 3-2 1-5h3v-2l-8 2-1 5-14 10-2-1 5-5h2l-1-4h4l1-3h3l1-4 5-5 5-3-1-5 4-4h2l1-5h3l-1-5-3-1v-3h6l4 3h2l-2-6 5 1v-2h2l2 4 2-1 2-5 3-2 1 3-2 5 7-2v2l-3 2-3 7-1 2h6l12-8 6-2 2-3 6-1-2 4-8 4-5 4h-3v2l-8 4h-2l-1 4-2-1v2h-2l3 6v2h-2l-3-5-6 2-11 7 3 2 3 3-4 3h-7l3 8-1 3-2-4-3 7-2-1-1 2 2 1-3 2-3 8 13-4h3v-2l9-2 23-8 1-1 14-2 10-4 5-1 5 2-4 2-7 2-3 2-10 3-1 3h-12l-38 11-5 2 3 3 8 3 4-4 6-7 1 2-1 3 5-2 1 4-2 3 17-3 4 1-10 4-13 3-2 3 2 3h-3l1 4 5-2h3l-4 6 2 2 3-1 1 3 6 1-4 4v2h-4l1 4v5l2 1 1 7-2 3-3-3-6-2 1-4-4-2 4-2-7-1-2 5 4 3-6 4-2-1v8l-4-3h-3l-1-3-1 2-6 1v-3h2v-5l1-1-2-1v-2h-9l-3 3h-5l2 4 8 4 5 1v2l3 1v5l-3 2-5-1-3-3-1-2-5-3-6-2-5-4-1-2-2 1v4l-5 2 1 4 3-1 2 8 6 6v2h2l10 13 3 3v2l3 1 2 2h2v-4l-4-2-1-4 4 1 4 6 13 12 5 5v4l-4-1-10-10v-2h-2l1 4 4 8-4-1-2-1v-2l-5-1-1-5-5-5-8-11-5-4 1 5 3 2 2 7 1 3-6 3 1 5 3 4-2 9h-3l-2-1v-2h-2l5 8 3 5 7 4h17v-2l4 2 1 2-17 1h-11l-5-1h-10l-5-16-4-15-2-6-4-13-3-9-7-17-4-13-4-10-1-4-3 1 4 12 1 1-1 8h-1l-1-7h-2l-5-14-1-1-1 6h-2v-9l-5 1v3h-6l-4 4-1 4h-5l-4-3v-6l-4-3-5-2v-4h6l-2 2 3 2v-2l9-2-2-2-18 1-35 1v-2l6-1 26-1 3-3v-3l7 2v2l4-1v2h5v-3l-13-2-16-6-1-3 6 1v-2l5 1-4-7-6-2v-4l-4-2-4-8v-2h-2v-6l3 1 2 5 5 3v2h3l3 3v2l10-6h2v2l6-1-1-5 2-1 2 3 4-1-3-10-3-3-3-4 1-2 7 5 8 2v2h-3l-1 3-1-3h-2l6 15 3 4 3-3 2-1 2-4 2 1-2 6 3 2v-2h6v-3l5-1 1-2h2l2 3 1-6-9-1-2-1-1-4v-9l2 2 2-6h-4v-3l4-1 1-10h-4v-2h-3v7l-2-1-1-5h-7l2 5v8l-2-1-3-11-2 2-2 5-1 7-5 1-2-2 1-5 7-12v-2l-3-2h7l1-3 4 1 7 5-1-3h2l-2-17-4 2-2-4 2-5h3l-1-8-2-5h2l-3-14-2-7h4l2 4v7l4 7 3 11-1 3-4-9 1 13 1 2v11l1 13 10-2v-9l-4-1-1 3-1-1-2 3-2-4 3-3 4-1-3-5 3 1 1 2-1-8-1-3 2-4h2v-3h-6v-3h3v-8l2-12 2-31zm-49 129 2 2h-2z" fill="#6FCBC8"/>
<path transform="translate(963,678)" d="m0 0 6 1 9 2 6 4v2l3 1v2l4 2 1 1 2 9h2l3-13 3 1 2 7 6 14v3l8 2 5 3 7-4 14-3v2l-19 6v2l7 6 4 8h1v-12l6 1 5 5 9 7 10 13 4 8 3 7 1 5v16h-43l-17-1-33-1-33-2-6-2-9-1h-14l-7-1-12 6-11 7-13 6-3-1 8-6 14-6 9-8 6-3-20-1h-4l-6-13v-14l2-4h4l-5-8-2-9 2-3 9-3v-6l9-6h6l7-3 4-6h2l2-4 7-3 3-3 3-1 20-1 3-1v-2z" fill="#DBBABC"/>
<path transform="translate(1237,352)" d="m0 0 2 1-8 5-2 1v3l-10 4v2h-2l-1 2h-6l-11 6-8 3v1l20 2h23l-17-5 1-4 15 5 8 1v2l6 1-1 3h2v-4l-3-1 4-1 3 1v-2l-9-1-4-2 1-3 8 4 8 2-1-5 5-1 2 1-1-7 3 2 1 4 4-1 1-4-2-1 4-1 8-13h2l-1 4-6 9v4l-3 6 3 1v3l4 1-1 2h5v1h-9v6l6 7-4 1 10 21 10 8v2l-5-2-4-1-3-5-2-1 1 7-4-3h-2l-3-5-5-1-1-8v-2l-2-12-5 1-4-3 1 5-2 2h-12l-6-4v2l3 1 4 6 2 4 2 16-3 19v10l-2 6v7l-3 5-2 10 1 8 1 4-4 10-6 7-6 1 3 3v4l6 1-2-7 3 1 1 6h2l3-9 9-7 9-4-2 4-9 5-2 7h2l1 6h-2l1 4 5-2-1-6h3v5l3-1 2-4 1 4-2 4-4 3h-4l11 9v2l3 1-5 4-7 4h-2l3 4 11 1v3h-3l2 5-8-1-10-2v2l-9 1-7-3-2-2-6-2 1-3-25-1v-3h-23l-9-2 2-6-1-7 7-3 5-10 1-5-3-17v-8l3-3v-2l-3-3-2-6 2-16 4-4-6-7v-7l5-1v2l3-1 1-4-6 1 2-14 7-8-1-10-5-5-5-2-3-1 1-7 6-1 4-2h4v-2l9-1 1-3-12-2 1-2-4 1 3-3 21-12-4-3v-2l2-1-1-3 5 1v-3l6 6 6-2 5-1z" fill="#DBB9BC"/>
<path transform="translate(1383,1130)" d="m0 0h75l14 1 2 4-8 4-3 3-3 1-1 5 7 1v2h6l6 3v2h7l3-2 13 3 4 1 3 1 1 2h4l-1-2h11l4 2 1-2 2 2h7l1 3 17 1 7 2h10l7 3h7l5 1h8l1 1v27h-86l3-2-7-1-4-2v-2h-8l-3 2-13-1-6-4h-3v2h-9l-13-4v-1h-6l-4 1-6-2h-11l-6-1-1-1-2 2-8-1h-10l-2 1h-6l-2-1-13 2h-10l-3-1h-7l-7 2-4-1-21 2-12 2-16 1-83 6h-11v-1l45-4 47-5 19-3 17-6 5-2 1-4-1-4-12-4-5-12-5-5-20-12v-3l9-1h49z" fill="#1E9E98"/>
<path transform="translate(1117,966)" d="m0 0 4 2 4 13 2 19 5 24 4 2v2h2v-2l6-1 2 7v8l-5 8-3 4-3 9-3 6v5l4 4v3l-9 4 2 4 2 2-1 8 4 7 2 3v7l-8 11-5 8-1 9-4 10-3 3-8 3-4 2h-3l1 5 5 3 10 5 5 3 8 2-1 2h-32l-24 1h-27l-16-1-16-4-11-5-1-6 1-3 5-3 15-5 6-11 6-9 8-11 7-16 6-15 7-9 8-6 5-8 9-7 2-3h2l2-4 3-5 3-7 4-9h2l2-9 2-6 3-17 2-16 4-18z" fill="#F5EDEC"/>
<path transform="translate(1103,1010)" d="m0 0h2v10l-3 14h-2l-1 5-6 10-5 6-13 10-7 9-10 9-5 9-2 7h-2l-3 9-8 15-8 10-3 3-36 1h-103l-1-1-1-11-2-4v-7l3 1 2-5 7-1 2-5 3-3 2-5v-2h2l1-3h2v-8l1-3h2v-2l8 1h2l17-5 3-5 1-1h9l2-4 4-1 2-5 3-7 4-1 1 5-1 6 3 3 10 4 3 2 2-1 1-3 2-1h6l5 4v3l8 1-1-6-2-4 2-3 9-3 5 2h7l7-2v-2l7-4 5-3h2v-3l12-1 9-3 5-15 4-2 5 1 7 3 4-1 5-12z" fill="#1E9E98"/>
<path transform="translate(1153,590)" d="m0 0m-3 1h3l-3 11-1 6-1 9 2 9 2 3 2 10 2 13 3 1 5 5 4 5 6 2 2 4-4 1-23 1 3 3 5 3-1 7 6 12-1 4-3 7v17l-1 30 5 17h4l4-1 4 4 2 11 55 1v1l-50 5-7 3-11 1-10 2-12 4-4 4 1 12-13 2h-99l-42-1-31-3-22-4-10-4-3-5v-13l2-9 4-3h10v1l-7 1-1 2h-3l1 18 3 7 9 3 27 4 34 2h36l17-1 12-3 6-7 2-5 10-3 6-2h21l6-2 1 2h7l3-4 16-2 15-2-1-5-7 2h-5l-2-6-4 1-6 1-2-2v-6l-6-5-5-9-2-1v-2l-4-2 1-4-2-3 2-9 9-8 4-2-2 7 1 6h2l2-8 2-17 4-10 6-2v-2l-6 1-5-5v-2l-8-1-1-4 1-12-4-6-9-4v-1l19 1h14l-1-5-10-10-9-3-2-3-2-15v-18l5-9 6-2 1-3 18-8z" fill="#E7DADC"/>
<path transform="translate(1302,554)" d="m0 0h7l1 5 2-4 4-1 11 4 5 5v2l-5-2-9-6-4-1v6l-2 6 2 3-1 23v132l1 31 39 3 18 3 11 4 5 3 2 5v15l-2 10-7 6-14 4-35 5-22 2h-15v-2l-3-1-3-3v-12l3-5 8-4 20-3-1-3 19-3 27-6-22 3-21 2-22 1h-12l5-7 2-1 1-3v-10l-3-5-2-11-1-15-1-51-1-8-2-6v-3l-4-1-7-3 1-2 4-4 3-8 1-9 2-12 2-7v-14l1-15 1-2-1-6h-2v-4h2l-2-4-1-4-2-5 9 6-1 3 1 3 1 7 1 2v8l-1 2-1 9 12-1 2-9-1-6-1-2v-14h-2l-1-6z" fill="#719391"/>
<path transform="translate(1231,789)" d="m0 0 4 1-2 2-12 4-8 5h-2l-1 5 8 8-2 3-9 2 33-1 35-2 7-1h12l3 3-39 3-51 2h-12l-18 1-2 5-4 7-1 4v12h2v2l-5-2-5-3-3-11-3-1-1 3-1-4-2 4-5-1-1-3-2 2-4-1v-3l-2 2-2-2v-4h-3l1 6 1 8 1 12-1 4-3 2v4l6 1h3l5 5 4 11 2 12 2 1-4 4v2l8 6 3 2 3 6v6l-3 4 1 7 3 4 1 6v36l2 30 4 29 7 15 2 2v3l4 2 4 5 4 4 1 7 3 7h3l2 6-5 7h-2l-1 6v9l3 9 6 14 2 4 3 3v2l4 2 6 4 6 2 7 1 4 3 4 2 1 3-13 11h-2v2l-12 4-1 1-9 2-13 4-8 1-5 3h11l16-2 13-1 9-3 9-2v2l-7 3-22 5-15 2-34 1h-62l-22-1-16-2v-1l46-1 20-3 7-1 16-2h8l22-3 15-2 10-2 11-2 6-1 1-2h3v-2l5-5 1-5-11-3-10-7-8-8v-2h-2l-5-7-3-3v-3l-2-2-1-6-1-4h-2l-1-5 1-6 5-5 5-6h2l-1-6-8-4v-12l-3-5-6-5-1-4h-2l-4-6v-2l-5-2-4-24-5-15-1-9-3-29-1-18-3-13-5-4-6-3-3-3v-4l5-2v-2l4-3h2l-1-5-9-8 1-7-9-1-6-5-4-1-7 3-5 10-3 2h-3l-1 10 1 5-2-1-1-3v-7l3-6 6-5 2-5 1-26 2-5 3-19 1-2-3-4-1-7-1-5-15-1-74-2-21-1v-1h126l21-1 15-2 5-4 4-4 3-5 6-4 17-3 9-3 12-2z" fill="#B4D4CF"/>
<path transform="translate(1218,554)" d="m0 0 4 2-11 6-2 2-1 4-6 3v2l9 4 14-1 4-1h8v1l-17 4-6 2 1 5 1 8 2 4 1 5 4 7 1 5 5 1-1 2-12 1 2 1 1 7h-2l7 11 10 1 2 3 10 5-1 2-5-1v2h-2l6 7 2 1 1 4-2 2-7 1-11 3-2 3v7l-1 5v7l4 7 1 7 2 3 2 10-1 3 1 11-1 12 2 6 7 8 3 7 3 5 3 7 3 3v3h9v1l-29 1h-26v-9l-2-7-3-8-4-4-4-8-3-16 2-5 4-4 1-2-5 2-1 2h-2v-7l1-6v-9l5-5 8-5v-10l6-6-5 2-5 5-4 10-4-1-3-9v-9h-2v-5l10-2 11-1-7-5-5-6-4-9-1-14 2-6h-2v-2h-3l-1-6 2-5-1-6-5-3-3-5-1-2 3-13 7-3 9-2-7-2-3-3-5-2v-3l5-1v-2l13-3 2-3 3-1 4-4 7-1z" fill="#DBBABC"/>
<path transform="translate(1195,822)" d="m0 0h11l-4 13-2 15v42l6 9 3 4v10l-4 6-7 5-3 4v55l1 25 1 15 5 12 4 8 1 3h4l4 2 5 4 9 5 5 5 3 8 9 6 2 2v7h-4v14l4 12 3 5v3l4 2 8 7v2l5 2 4-2 14 8 16 6 4 4 1 6-2 4-11 3v2l-8 7-1 4-13 5-13 4-18 4-27 3-14 1h-43v-1l34-1 21-3 20-5 5-3h3v-2l12-2 8-3 10-5h3v-2l11-6 1-6h-2v-2l-5-1-16-6-4-2v-2l-4-1-8-7-3-1-7-10-1-4h-2l-4-10-1-9 3-14 1-3-2-2-10-3-2-14-6-2-5-3v-2l-4-2-5-6-5-7-5-11-1-6-3-12-3-38-1-31 2-9h-2l1-6 3-5 2-7-2-9-4-4-3-2-2-12-3-11-2-9-4-7 1-5 3-1 2-4h-2l-1-4v-8l3-8 5-8 3-1z" fill="#719391"/>
<path transform="translate(1110,98)" d="m0 0h2v9l-1 4-1 18-1 2v9l2 1 2 9v27l3-3 1 4-3 6-3 13 3-3 2-8 2 4 4-1 4-4-1 6 4-1 2 3-1-6 2-1 2 2v2l4 1 1-4 2 5 3 1v4l-8 1-5-1h-4l-6 13-1-3 1-5-2 3-3 10-1-3h-3l-1-7-1 3-1 4v-2h-2v4h-3v6l2 1 2-3 3 2v2l2-1 2-4 3-2-1 5 4 1v-4l3-1 3-5 2-4 4 1-2 4h-2l-2 5 2 1-4 2-2 5h3l7-10 1-3 6 1-4 4 4 1v2l-8-1-2 4-1 4 1 3-5 1-1 2 5-1 8-7 2-3h2l2-5v-3l2 4h2l-2 4-4 4 3-1 2-3 5 1-5 5 4-1 3-2h4v-3l11-4 2-4 3-2 1-5h3v-2l-8 2-1 5-14 10-2-1 5-5h2l-1-4h4l1-3h3l1-4 5-5 5-3-1-5 4-4h2l1-2h5l5-2 1 3-1 1 2 1 2-8 5-1-1 4 5 2v2h-5l-10 7-6 3-3 2-1 5-1-4-1 1-1 7-2 4 4-6h1v7l-3 4-8 2-10 6-6 3-3 2-7 2-7 5 5-2 3 1 15-7h3l-1 4-21 9-3 1-1 2-5 1-2-1-1 4 3 1v2l-5-2-1 3h3v3l-9 1-6 2 3 2 4 2 5-1-4 8h-9v-4l2-1-6-2v2l-5 1-3-1-6 4-5 1-2-1v-2l-11-1h-10l-11 1-35 1v-2l6-1 26-1 3-3v-3l7 2v2l4-1v2h5v-3l-13-2-16-6-1-3 6 1v-2l5 1-4-7-6-2v-4l-4-2-4-8v-2h-2v-6l3 1 2 5 5 3v2h3l3 3v2l10-6h2v2l6-1-1-5 2-1 2 3 4-1-3-10-3-3-3-4 1-2 7 5 8 2v2h-3l-1 3-1-3h-2l6 15 3 4 3-3 2-1 2-4 2 1-2 6 3 2v-2h6v-3l5-1 1-2h2l2 3 1-6-9-1-2-1-1-4v-9l2 2 2-6h-4v-3l4-1 1-10h-4v-2h-3v7l-2-1-1-5h-7l2 5v8l-2-1-3-11-2 2-2 5-1 7-5 1-2-2 1-5 7-12v-2l-3-2h7l1-3 4 1 7 5-1-3h2l-2-17-4 2-2-4 2-5h3l-1-8-2-5h2l-3-14-2-7h4l2 4v7l4 7 3 11-1 3-4-9 1 13 1 2v11l1 13 10-2v-9l-4-1-1 3-1-1-2 3-2-4 3-3 4-1-3-5 3 1 1 2-1-8-1-3 2-4h2v-3h-6v-3h3v-8l2-12 2-31zm-49 129 2 2h-2z" fill="#E9DFDE"/>
<path transform="translate(1237,389)" d="m0 0h30v6l-6 1-4-3 1 5-2 2h-12l-6-4v2l3 1 4 6 2 4 2 16-3 19v10l-2 6v7l-3 5-2 10 1 8 1 4-4 10-6 7-6 1 3 3v4l6 1-2-7 3 1 1 6h2l3-9 9-7 9-4-2 4-9 5-2 7h2l1 6h-2l1 4 5-2-1-6h3v5l3-1 2-4 1 4-2 4-4 3h-4l11 9v2l3 1-5 4-7 4h-2v2l-8-2-7-4-7-1-1 1h-12l-2-1 2-10v-7l-3-6-2-7 1-10-5-9-3-13 4-7 1-1h5v2h2l1-4-10 1-1-4v-2l3-1-1-18-1-7-1-12-1-6 3-10 3-7 7-2-1-8 6-3h8l4 1 2-3z" fill="#BBA0A0"/>
<path transform="translate(1105,78)" d="m0 0h1v17l7 1 3 1 2 7 2-3h3v8l2 4-1 5h5l3-4 3 1-1 9-2 9 2 3 3-8 3-9h2v9l-5 18 1 3 3 1-2 10h4l3-6 1-4h2l1-5 8-18h3l-1 6-7 15 1 17 1 1 10-16 2-1-2 6-8 16h-2v3l8 1 2-4h4l7-11 7-10v-2l4-4 1-5h2l1-2 2 1 2-4 4-5 4-1 1 2-5 7-3 2-2 8-2 1 1 7-5 1-2 2 3 2-9 6-4 2-3 5h3l-1 5-13 12-3 5h2l1 3-7 8-2 3v2l3 1 1-3h2l2-4v3l5-1v2h-3l-1 4-4-1 1 4-5 3v2l14-10 1-4 3-2h5v2l-3 1-1 5-3 2-2 4-8 3h-3v3l-7 3-6 2 5-5v-2h-3l-3 4-3-1 7-8h-2l-1-1-3 5-5 5-8 7-4-1 1-3 3-1 2 1-2-3 1-4 3-4 8 1v-2l-5-1 3-4-4-1-1 4-7 10-4-1 3-6 3-1v-4l5-6-4-1-2 6-5 5-1 4-4-2v-4l-4 6h-2l-3-3-2 3-3-2 1-6h3v-4h2l1-6 2 1v7h3l5-11 2 1-1 7 5-12 5-1 8 1h5v-4l-4-1-1-2-5 1-2-2v-2l-1 3 1 4-3-1v-3l-5 2 1-6-4 5-4-1-4 7h-2l1-9 3-9 1-4h-2l-2 4v-29l-2-9-1 5h-1v-15l1-2 1-18 2-13-2 1-2 31-1 8-2-1-2 3-1-5 2-44z" fill="#71CBC8"/>
<path transform="translate(963,678)" d="m0 0 6 1 9 2 6 4v4l-7-1v7h-3v-2h-2l-1-2-4-1-1 5h-2l-1 5-4 2-1 4-1 2 4 1-4 4-12 1v2h13l14-10 6-3-2 6-8 4-2 3h-3v2l-3 1-3 3-8 4h15l-2 1v2l-11 3h-12l-4 2h-4l-3 3-14 7h28l-1 2h-3v2l-8 5-9 3 8 5v2h2l2-5 4-6 1 4-2 5 5 1-2 4-5 4-1 5-3 1h-8l-5-2-19-2h-11l-6-13v-14l2-4h4l-5-8-2-9 2-3 9-3v-6l9-6h6l7-3 4-6h2l2-4 7-3 3-3 3-1 20-1 3-1v-2z" fill="#EDE2E1"/>
<path transform="translate(1203,921)" d="m0 0v3l-2 5v27l2 43 3 22 5 14 7 11 8 8 10 7 8 9 8 7 6 7 15 30 9 12 10 9 18 10 5 5 3 4 3 7v3l6 1 6 3 2 5-5 5-16 6-16 3-43 5-32 3-23 2-5 1h-76l-34-2-38-4-22-4-14-4 4-1 15 3 43 5 22 1h105l33-3 17-3 16-4 15-5 4-2 1-4 6-6h2v-2l3-2 8-1 1-6-2-6-9-4-11-4-12-7h-2l-2 2-5-3v-2l-4-2-8-7-6-13-2-7v-8l1-6h4l-1-7-3-3-7-4-2-2-3-9-9-6-7-4-5-4-1 2-5-5-5-10-4-10-2-41v-54l6-7z" fill="#597672"/>
<path transform="translate(1137,930)" d="m0 0 9 4 3 3 3 13 2 31 3 21 1 6 4 14 3 16 1 7 4 2 4 6v2h2l4 6 5 4 2 4v12l8 4v6h-2l-2 4h-2l-2 4-2 5-2 4v5h2l3 7 2 8v2l4 2 3 4v2h2l5 6 7 6 6 4 11 4 1 4-5 6h-2v2l-13 5-16 2-8 2-33 4h-6l2-2 13-2 10-2 8-3 5-2v-6l-4-10-5-11-3-7-3-8-5-15v-10l5-10 2-5-5-5-2-5 2-3-2-13-4-9-4-16-2-11-2-4-1-6-2-30-1-14-1-20v-8l-3-5-2-7-5-2z" fill="#E0D1CD"/>
<path transform="translate(1177,389)" d="m0 0h7l-3 3h-7v7l5 1 6 4 2 3 1 10-7 8-2 12-1 2 6-1v5h-4v-2l-5 1 1 7 4 5 2 2-4 4-2 17 2 7 3 1-2 4-1 1v8l3 17-3 9-4 7-7 2 2 8-3 5 9 1h20l3 2-20 2h-11l-6-1v-2l-3-1 2-4h-2v2h-4v-5h-2l-1-5-4-4 1-4 6-5h3l-4-5 2-9-1-10-2-4 4-5h4l-2-4-3-3 1-6-4-11 1-6 2-3-1-13-1-9 4-2 3-24 1-5-8-3-17-1v-2l16-1 1-1 9-1 1-1-19-1v-1z" fill="#E1D1CD"/>
<path transform="translate(1207,166)" d="m0 0 2 1-2 7 7-2v2l-3 2-3 7-1 2h6l12-8 6-2 2-3 6-1-2 4-8 4-5 4h-3v2l-8 4h-2l-1 4-2-1v2h-2l3 6v2h-2l-3-5-6 2-11 7 3 2 3 3-4 3h-7l3 8-1 3-2-4-3 7-2-1-1 2 2 1-3 2-3 8 13-4h3v-2l9-2 23-8 1-1 14-2 10-4 5-1 5 2-4 2-7 2-3 2-10 3-1 3h-12l-38 11-5 2 3 3 8 3 4-4 6-7 1 2-1 3 5-2 1 4-2 3 17-3 4 1-10 4-13 3-2 3 2 3h-3l1 4 5-2h3l-4 6 2 2 3-1 1 3 6 1-4 4v2h-4l1 4v5l2 1 1 7-2 3-3-3-6-2 1-4-4-2 4-2 1-3h-10l-17-3-8-2-1-4 4-1v-2l-8-2 1-4h4l1-2h-9l-1-2 6-1 11-1 7 1v-2h-6v-2l-2-1v2l-6 1-3-1-8 3h-3l1-4 7-2v-2l-7 1-7-1 1 3-16 2-4-2 1-4 5 3-3-3 1-4 4-1 1-2 8-2 19-8 1-3-18 8-5-1-5 2 4-4 7-4 7-2 4-3 8-4 7-4 7-2 1-2v-6l-3 5h-3l4-6v-6l4-2 6-4 9-5 4-3 5 1v-2l-5-1v-3l1-2-5 1v5l-2 3-3-1 1-4-5 3h-4l-1-4h3l-1-5-3-1v-3h6l4 3h2l-2-6 5 1v-2h2l2 4 2-1 2-5z" fill="#73CBC8"/>
<path transform="translate(1404,1174)" d="m0 0 16 1 5 1h14l4-1 2 2 3-1 7 1v-2l4-1 7 2 4-1h2v2l8-1 8 1 14 1h3 8l8 2h7l1-1h5v2l16-1 9 2 5-1 7 2h9l7 2h11l2 1v13h-86l3-2-7-1-4-2v-2h-8l-3 2-13-1-6-4h-3v2h-9l-13-4v-1h-6l-4 1-6-2h-11l-6-1-1-1-2 2-8-1h-10l-2 1h-6l-2-1-13 2h-10l-3-1h-7l-7 2-4-1-21 2-12 2-16 1-12 1h-14v-1l42-4 16-3 19-3 13-2 16-1 10-1 5 1 1-2 5-1h7z" fill="#37ACA7"/>
<path transform="translate(1305,600)" d="m0 0h3v45l-2 16-1 4v38l1 20 1 31 1 7 2 2 1-2 3 1 1 10-1 7-15 2h-12l5-7 2-1 1-3v-10l-3-5-2-11-1-15-1-51-1-8-2-6v-3l-4-1-7-3 1-2 7-2h4l2-2 1-13h1l3-15 2-12 1-3 1-5z" fill="#8B5263"/>
<path transform="translate(1143,938)" d="m0 0 2 3 3 5v15l1 19 2 18 1 20 2 9 1 1 4 20 3 10 3 6 2 13-2 5 5 5 2 4-7 14v10l5 15 3 8 8 18 4 10v6l-6 3-12 4-19 2 2-4h3l1-7-4-3 1 5-5-2-1-3 3-10 3-5v-8l2 2-1-7-2-6-2-15-1-11 4-9 3-7v-3l-3 1-2-7 5-3 2-3-3-1-2-5v-9l1-2-3-14v-23l-2-6v-6l-1-2-1-11v-10h3l-2-11-1-18-2-16z" fill="#E6DADC"/>
<path transform="translate(1275,819)" d="m0 0h11v1l-9 1-3 5-9-1v2h-2v3h-2l-2-3-4 1-2 11-9 4h-3l-1 3h-2l-1 6-5 5-5 2-2 9 5 8 2 10-5 5-2-1-3-6-5-1-1 5-1 3-1 11-5 2-3-4-3-1-4-7v-42l3-20 4-8 31-1z" fill="#36ABA6"/>
<path transform="translate(1302,554)" d="m0 0h7l1 5 2-4 4-1 11 4 5 5v2l-5-2-9-6-4-1v6l-2 6 2 3-1 23v132l1 33 7 2 30 5 11 3-2 3 2 2-4 2-37 4h-13v-1h6v-9l-1-8-2-1-1 3-3-3-1-7-1-34-1-24v-32l2-10 1-9v-38l1-7-8 3h-3v7l-2 4-2 15-2 10-1 3-1 10-4 2-8 1v-2l2-2 3-8 1-9 2-12 2-7v-14l1-15 1-2-1-6h-2v-4h2l-2-4-1-4-2-5 9 6-1 3 1 3 1 7 1 2v8l-1 2-1 9 12-1 2-9-1-6-1-2v-14h-2l-1-6z" fill="#5B7874"/>
<path transform="translate(1364,774)" d="m0 0 4 1-22 5-27 5v2l-9 2-11 2-8 4-2 4v13l4 2-2 1-29 3-47 2h-13v-1l14-3-1-4-3-3v-2l-3-1 2-5 10-6 17-6 49-5 17-2h-9l4-2 33-2 26-3z" fill="#B0B7B1"/>
<path transform="translate(1065,207)" d="m0 0 6 4 6 2 4 1v2h-3l-1 3-1-3h-2l6 15 3 4 3-3 2-1 2-4 2 1-2 6 3 2v-2h6v-3l5-1 1-2h2l2 3 1-5 4 1 2 6-5 1-1 1-1 15 2-2v3l-2 4 2 4 2-1 1-3 4-1v2l3-1h8v2l-9 1-6 2 3 2 4 2 5-1-4 8h-9v-4l2-1-6-2v2l-5 1-3-1-6 4-5 1-2-1v-2l-11-1h-10l-11 1-35 1v-2l6-1 26-1 3-3v-3l7 2v2l4-1v2h5v-3l-13-2-16-6-1-3 6 1v-2l5 1-4-7-6-2v-4l-4-2-4-8v-2h-2v-6l3 1 2 5 5 3v2h3l3 3v2l10-6h2v2l6-1-1-5 2-1 2 3 4-1-3-10-3-3-3-4zm-4 20 2 2h-2z" fill="#DCD3D1"/>
<path transform="translate(1145,250)" d="m0 0 14 1v2l-5 2-2 1-1 3 11-4 9 1v-2l3 1-1 2 7-1-1 3h-13l-9 1-1 1h11l-2 1-2 4-3-1-1 3h6l3 2-1 3-3 1v3l13 2 12 2 10 1v2h-8l-2 5 4 3-6 4-2-1v8l-4-3h-3l-1-3-1 2-6 1v-3h2v-5l1-1-2-1v-2h-6v-2l-11-2-12-5-5-2-13 1 1-4-3-1-1 2-4-3v2h-2l2 9 3 1 4 4-1 3-4-1-4-2 4 9h-3l-2-6-3 1-4-10-1-4-3 1 4 12 1 1-1 8h-1l-1-7h-2l-5-14-1-1-1 6h-2v-9l-5 1v3h-6l-4 4-1 4h-5l-4-3v-6l-4-3-5-2v-4h6l-2 2 3 2v-2l9-2 1-3 8 1 3 1v2l9-2 5-3 7 1v-2h5l2 3-3 1v2h9l3-6-5 1-4-2-3-3 7-3h9l1-2 8-1 7-1z" fill="#B2D1CD"/>
<path transform="translate(989,702)" d="m0 0h2l-1 11-2 5h-2v2l-4 1 1-3h-2v2l-4 3-4 8-7 4-3 1v2l-18 8 12-3 6-3h2l-2 7-3 7-1 13 3-1v-12l9-17 9-11 5-2-2 4-4 5h-2l-2 6-6 9-2 8v11l4 8 2 3v3l-2 1h-22l-6-2-9-1h-14l-7-1-12 6-11 7-13 6-3-1 8-6 14-6 9-8 3-2 9-1 5 2h11v-5l7-6v-2l-4-1 1-8-6 10h-2v-2l-5-2-4-4 12-4 4-3h2v-2l3-1h-29l4-3 12-6h2l1-3h6l2-2h12l7-2h4v-2h-14l3-3 13-6h8v-2h2v-2l3-2 5 1 4-9z" fill="#DAB9BC"/>
<path transform="translate(998,723)" d="m0 0 6 1v1l-9 2-1 6 11-6 9 2 8 6 3 2-6-6 1-2 8 5 2 3v13l-9 4-4 1 3-4-1-8-4-9-3 9-4-5-6-5v4l-6 1v2l9 2-9 9-1 3h-3l1-8-2 3-1 6h-3l-2-10 5-3-1-4-5 6-1 7 2 4h-5l2 3 3 12 3 2v2l5 1 6-2h3l-1-4h4l-1-2-3-1 2-5 7 2v3l-3 2 2 1v2l7-2h5v-2h-5v-2h-2l1-5 6 1 2-4 5-2 1-2 4-1 3-1 2-11 4 4 4 12 2 14 1 4h-5l-2 8 3 1-1 2h-29l-24-1-4-2v-2h-3l-2-4h-3l-2-9-1-14v-11l4-8 7-7 4-3z" fill="#BA9E9E"/>
<path transform="translate(1105,78)" d="m0 0h1v17l7 1 3 1 2 7 2-3h3v8l2 4-1 5h5l3-4 3 1-1 9-2 9 2 3 3-8 3-9h2v9l-5 18 1 3 3 1-1 5-5 12-1 4h3l-2 4h-2l-1 2-2 2-2 6-4 2-3 4-4-1-4 7h-2l1-9 3-9 1-4h-2l-2 4v-29l-2-9-1 5h-1v-15l1-2 1-18 2-13-2 1-2 31-1 8-2-1-2 3-1-5 2-44z" fill="#77CBC8"/>
<path transform="translate(1314,556)" d="m0 0 5 1 13 8-1 18-5 5 1 2h10v2l5-2 4-1 4 4-1 4-7 3h-3l2 4-1 7-1 2-7 2 1 4 5 5 3 2h-2v2h2v4h-2l-1 3-5 1-1 4-8 6-1 9-5 4-2 9-1 7 3 3-3 6-1 5h-1l-1-35v-60l1-23-2-5 2-4z" fill="#36ABA6"/>
<path transform="translate(924,778)" d="m0 0h10v1l-7 1-1 2h-3l1 18 3 7 9 3 27 4 34 2h36l17-1 12-3 6-7 2-5 10-3 6-2h21l6-2 1 2h7l3-4 16-2 10-1h10l-4 3-17 3-1 3-6 2-8 1-6 5v7l2 1 1-2v2l4 1 1 2 3 1 1 2-5 1h-99l-42-1-31-3-22-4-10-4-3-5v-13l2-9z" fill="#DFE6E5"/>
<path transform="translate(843,1088)" d="m0 0h3l3 4-3 1v6l16 4 9 1v3l-1 5h-2v3l7 2 2 1 1 11 6 4-2 4h-43l-5-1-5 1-9-3h-5l-6 3h-9l2-3 5-2 2-3 5-5v-1l13-2 6-10h2v-3h2l-1-13 5-5z" fill="#1E9E98"/>
<path transform="translate(1237,352)" d="m0 0 2 1-8 5-2 1v3l-10 4v2h-2l-1 2h-6l-11 6-8 3v1l20 2h23l-17-5 1-4 15 5 8 1v2l6 1-1 3h2v-4l-3-1 4-1 3 1v-2l-9-1-4-2 1-3 8 4 8 2-1-5 5-1 2 1-1-7 3 2 1 4 4-1 1-4-2-1 4-1 8-13h2l-1 4-6 9v4l-3 6 3 1v3l4 1-1 2h5v1h-9v6l6 7-4 1 10 21 10 8v2l-5-2-4-1-3-5-2-1 1 7-4-3h-2l-3-5-5-1-1-8v-2l-1-6v-12h-31l-3 1-16 1h-10l-19-2v-2l9-1 1-3-12-2 1-2-4 1 3-3 21-12-4-3v-2l2-1-1-3 5 1v-3l6 6 6-2 5-1z" fill="#DDD1CD"/>
<path transform="translate(1319,1158)" d="m0 0 2 3v3l6 1 6 3 2 5-5 5-16 6-16 3-43 5-32 3-23 2-5 1h-76l-34-2-38-4-22-4-14-4 4-1 15 3 43 5 22 1h105l25-1 26-3 22-4 21-6 18-6 5-2z" fill="#157871"/>
<path transform="translate(1199,180)" d="m0 0h3l-1 4 5 2v2h-5l-10 7-6 3-3 2-1 5-1-4-1 1-1 7-2 4 4-6h1v7l-3 4-8 2-10 6-6 3-3 2-7 2-7 5 5-2 3 1 15-7h3l-1 4-21 9-3 1-1 2-5 1-2-1-1 4 3 1v2l-5-2-1 3 3 1-11 1-4-1-1 4-3 1-2-6 2-4-2 1 1-16 5-3 5 2 1-7h-3l-2-6-1-4 4-2-1 5 4 1v-4l3-1 3-5 2-4 4 1-2 4h-2l-2 5 2 1-4 2-2 5h3l7-10 1-3 6 1-4 4 4 1v2l-8-1-2 4-1 4 1 3-5 1-1 2 5-1 8-7 2-3h2l2-5v-3l2 4h2l-2 4-4 4 3-1 2-3 5 1-5 5 4-1 3-2h4v-3l11-4 2-4 3-2 1-5h3v-2l-8 2-1 5-14 10-2-1 5-5h2l-1-4h4l1-3h3l1-4 5-5 5-3-1-5 4-4h2l1-2h5l5-2 1 3-1 1 2 1 2-8z" fill="#E2D9D8"/>
<path transform="translate(1117,272)" d="m0 0 4 2 4-1v3l-1 2 7-2h6l16 6 9 3 3 2-3 1-3 3h-5l2 4 8 4 5 1v2l3 1v5l-3 2-5-1-3-3-1-2-5-3-6-2-5-4-1-2-2 1v4l-5 2 1 4 3-1 2 8 6 6v2h2l-1 4-6-6h-10l-2 3 4 7 1 3-3-1-5-6-2 3-2 4-5-16-4-9-3-11v-3h2l2 3v3l2-1-4-8 1-2 5 4h3l1-2-4-2-5-6v-6h2z" fill="#72CBC8"/>
<path transform="translate(1207,166)" d="m0 0 2 1-2 7 7-2v2l-3 2-3 7-1 2h6l12-8 6-2 2-3 6-1-2 4-8 4-5 4h-3v2l-8 4h-2l-1 4-2-1v2h-2l3 6v2h-2l-3-5-6 2-11 7 3 2 3 3-4 3h-7l3 8-1 3-2-4-3 7-2-1-1 2 2 1-3 2-3 8 13-4h3v-2l9-2 23-8 1-1 14-2 10-4 5-1 5 2-4 2-7 2-3 2-10 3-1 3h-12l-38 11-5 2v2l-5-2-2-2 4-13-6 1-2 5-2-1 1-3-18 8-5-1-5 2 4-4 7-4 7-2 4-3 8-4 7-4 7-2 1-2v-6l-3 5h-3l4-6v-6l4-2 6-4 9-5 4-3 5 1v-2l-5-1v-3l1-2-5 1v5l-2 3-3-1 1-4-5 3h-4l-1-4h3l-1-5-3-1v-3h6l4 3h2l-2-6 5 1v-2h2l2 4 2-1 2-5z" fill="#80CBC8"/>
<path transform="translate(984,687)" d="m0 0 3 1v2l4 2 1 1 2 9h2l3-13 3 1 2 7 6 14v3l8 2 4 4-4 1-4-2h-5l-5 1-4-2h-6l-8 4-9 9-7 9-7 14v13h-4v-13l5-12 1-2-9 4-9 3-4-1 18-8h2v-2l7-5 3-1 4-8 4-2v-2h2l1 2h2v-2l2-1 3-15-5 3-4 9-1-2-7 2v2h-2v2l-10 2-3 1 1-3h3v-2l3-1 3-4 7-2 1-5-11 7-8 6-13-1v-2l12-2 3-3-3-1 2-6 4-4 1-3 2-1 1-4 5 1v2h2v2h3v-7l7 1z" fill="#DDBEC1"/>
<path transform="translate(1300,781)" d="m0 0h12v1l-62 7-19 1-17 3-10 1-12 4-13 2-7 5-2 5h-2l-4 5-3 2-18 2h-13v-1h8l-2-12 5-5 14-5 14-1 9-3 13-2 28-3h12v-2l2-1 47-2z" fill="#E0D0CC"/>
<path transform="translate(1385,772)" d="m0 0h3l1 3v15l-2 10-3 3-7-1-3 3-6 2h-8l-6-2-2-4-1-5-4-1-2 3-4-1v-10l4-5 8-3 27-5z" fill="#597571"/>
<path transform="translate(1314,1149)" d="m0 0 4 2 2 5h11l9 1 13 2 11 1 15 3 5-1 4-1 4 5-4 1-7 3h-15l-8 4h-5l-9 4-25 7h-6v2l-11 2-34 3-2 1-55 4h-11v-1l45-4 47-5 19-3 17-6 5-2 1-4-1-4-12-4-5-12z" fill="#118E88"/>
<path transform="translate(1187,1029)" d="m0 0 2 1 6 12 7 10 5 4v2l5 2 6 3 2 5v9l10 2 3 4-4 16 1 10 3 6v3h2l6 10 2 4 4 1 8 7 3 1v2l4 1 16 6 5 2v2h2v6l-9 6h-3v2l-11 5-5 2 2-4h2v-2l8-6h2v-2l7-2 2-4-3-3-25-5v-2l-6-2-7-5v-3l-4-1-7-9-4-11-2-9v-9l2-6v-6l-10-6-1-10 1-3-6-1-1-3-4-2-5-5-7-11-3-6z" fill="#BCA0A0"/>
<path transform="translate(1037,724)" d="m0 0 6 1 5 5 9 7 10 13 4 8 3 7 1 5v16h-43v-1h20v-2l4-3-3-1-1-19-2-12-5-10-6-5-1 2z" fill="#E6D9DB"/>
<path transform="translate(890,748)" d="m0 0 17 1 6 1h10l13-2-4 4-11 4 8 5v2h2l2-5 4-6 1 4-2 5 5 1-2 4-5 4-1 5-3 1h-8l-5-2-25-3-1-9 2-4-1-4-2-3z" fill="#E1D1CD"/>
<path transform="translate(1282,815)" d="m0 0h12l3 3-39 3-51 2h-12l-18 1-2 5-4 7-1 4v12h2v2l-5-2-5-3-3-11-3-1-1 3-1-4-2 4-5-1-1-3-2 2-4-1v-3l-2 2-2-2v-4h-2v-5l1-1h10l2 1h6l5-1h4v-2l55-3 45-2z" fill="#70CBC8"/>
<path transform="translate(1109,264)" d="m0 0h5l2 3-3 1v2h9l2-3 1 2 10 1 1 1h5v-2h5v2h-2v2l-12 3-4 2h-4l1-4-3-1-1 2-4-3v2h-2l2 9 3 1 4 4-1 3-4-1-4-2 4 9h-3l-2-6-3 1-4-10-1-4-3 1 4 12 1 1-1 8h-1l-1-7h-2l-5-14-1-1-1 6h-2v-9l-5 1v3h-6l-4 4-1 4h-5l-4-3v-6l-4-3-5-2v-4h6l-2 2 3 2v-2l9-2 1-3 8 1 3 1v2l9-2 5-3 7 1z" fill="#DFD4D1"/>
<path transform="translate(1074,233)" d="m0 0 4 5 3 2 4 8 4 3v-5l3 1 1-2 7 1 1-6 4 1 2 8v7l-2 5 3 1-3 2 9-2 7 2 5-1-4 8h-9v-4l2-1-6-2v2l-5 1-3-1-6 4-5 1-2-1v-2l-5-1-7-8-8-3v-2l-3-1 1-3 5 3v-2l-4-2v-5-3h2l1-2 3-3z" fill="#F5EDEC"/>
<path transform="translate(963,678)" d="m0 0 6 1 9 2 6 4v4l-7-1v7h-3l-3-6-6-2-3-2v4l-5-1-1 5-5 4-5 3-8 2h-8l-1 4-2 4-2 1-1 8-3 1 2 2-3 2-3-1 3-9h-2v-4l-6-1-1-4 5-6 1-2h2l2-4 7-3 3-3 3-1 20-1 3-1v-2z" fill="#F4EDEC"/>
<path transform="translate(985,723)" d="m0 0m-2 1h2l-2 4-4 5h-2l-2 6-6 9-2 8v11l4 8 2 3v3l-2 1h-22l-6-2-9-1h-14l-7-1-12 6-11 7-13 6-3-1 8-6 14-6 9-8 3-2 9-1 5 2h8l6-3 4-1 1-1 5-6 9-3 3-3 1 9 3-1v-12l9-17 9-11z" fill="#BCA0A0"/>
<path transform="translate(998,723)" d="m0 0 6 1v1l-9 2-1 6 11-6 9 2 8 6 3 2-6-6 1-2 8 5 2 3v13l-9 4-4 1 3-4-1-8-4-9-3 9-4-5-6-5v4l-6 1v2l9 2-9 9-1 3h-3l1-8-2 3-1 6h-3l-2-10 5-3-1-4-7 8-3 3-2 3-1-2v-8l4-8 7-7 4-3z" fill="#8C5263"/>
<path transform="translate(1359,1132)" d="m0 0h34l3 1 1 4-3 1h-26l-3-2h-3l-3 4-4-2-6 1-7 3h-3v2l-6-1-7 2h-9l-6 2-10-6-9-5v-2l15-1z" fill="#36ABA6"/>
<path transform="translate(949,697)" d="m0 0 3 2v2l6 1-2 5h-2l-1 4h-6l-5-4 1-3 1-1-8 3h-5l1 7h2l3-6 2 1-1 7-4 1-3-1v2l-5 2h4l4-2 20 1-1 3-3 1-4 5-11 1-17-1-3-1h-13l-2-2v-7l3-1 1 3-1 2h4l-1-5h3l-2-3 3-2 2-3 6 2v4h2l-2 9 4-1-2-3h4v-8l3-2 3-7 2-1h8z" fill="#D8B7BA"/>
<path transform="translate(1196,238)" d="m0 0 1 2-1 3 5-2 1 4-2 3 17-3 4 1-10 4-13 3-2 3 2 3h-3l1 4 5-2h3l-4 6 2 2 3-1 1 3 6 1-4 4v2h-4l1 4v5l2 1 1 7-2 3-3-3-6-2 1-4-4-2 2-1 5 1 1-9h-4v-2l-6 1-1 2h-6l-2-4-4-2 5-1-3-3 4-2 2-10-6-1 4-4-1-2h3v-2l3-3z" fill="#70CCC9"/>
<path transform="translate(1033,219)" d="m0 0 3 1 2 5 5 3v2h3l3 3v2l10-6h2v2l6-1 2-2v4h-2l-1 4-3 2-4-2v3l3 1-2 3-3 3h-3v2l3 1v4l3-1 9 4 7 2 2 4 4 2v3h-15l-11 1-35 1v-2l6-1 26-1 3-3v-3l7 2v2l4-1v2h5v-3l-13-2-16-6-1-3 6 1v-2l5 1-4-7-6-2v-4l-4-2-4-8v-2h-2zm28 8 2 2h-2z" fill="#D1D8D6"/>
<path transform="translate(999,689)" d="m0 0 3 1 2 7 6 14v3l8 2 4 4-4 1-4-2h-5l-5 1-4-2h-6l-8 4-9 9-7 9-7 14v13h-4v-13l5-12 1-2-9 4-9 3-4-1 18-8h2v-2l7-5 3-1 4-8 4-2v-2h2l1 2h2v-2l2-1 3-8 2-7h3z" fill="#E5D7D8"/>
<path transform="translate(880,725)" d="m0 0 5 1 7 8 5 6 6 5 5 1v-2l5-2v2h29l-1 2h-3v2l-9 2-12 1h-7l-6-1-9-1-5-1 3 6 1 4-2 4v9l-5 1-6-13v-14l2-4h4l-5-8z" fill="#F4ECEB"/>
<path transform="translate(1180,214)" d="m0 0h2l3 8-1 3-2-4-3 7-2-1-1 2 2 1-3 2-3 8 13-4h3v-2l9-2 23-8 1-1 14-2 10-4 5-1 5 2-4 2-7 2-3 2-10 3-1 3h-12l-38 11-5 2v2l-5-2-2-2 4-13-6 1-2 5-2-1 1-3-18 8-5-1-5 2 4-4 7-4 7-2 4-3 8-4 7-4 7-2z" fill="#71CBC8"/>
<path transform="translate(1270,520)" d="m0 0h8l5 2 1 9h3l2 9 3 2v3h-2v2l8-1v3l-5-1 1 2 6 2-1 2h-11l-6-2-10-1v2l-2 1h-16l-3-3v-2l10-6 4-3 13 1 1 2 1-5-1-7-9-10z" fill="#1B756F"/>
<path transform="translate(1280,352)" d="m0 0h2l-1 4-6 9v4l-3 6 3 1v3l4 1-1 2h5v1h-9v6l6 7-4 1 10 21 10 8v2l-5-2-4-1-3-5-2-1 1 7-4-3h-2l-3-5-5-1-1-8v-2l-1-6v-14h1l1-6 4-2 1-2-9 1-9-4-1 2v-3l5-1 2 1-1-7 3 2 1 4 4-1 1-4-2-1 4-1z" fill="#6ECAC7"/>
<path transform="translate(1283,561)" d="m0 0 9 6-1 3 1 3 1 7 1 2v8l-1 2-1 9 12-1v2l-7 1v7l-2 4-2 15-2 10-1 3-1 10-4 2-8 1v-2l2-2 3-8 1-9 2-12 2-7v-14l1-15 1-2-1-6h-2v-4h2l-2-4-1-4z" fill="#719391"/>
<path transform="translate(1315,462)" d="m0 0 12 3 10 6 4 5v2l6 2v3l3 1 3 10v11l2 2-6 1-3-3-7-13-5-5-3-9 5-5h-8l-5-3v-2l-13 1v3l-4 1v-2l-9-1v-4l3-2z" fill="#B2A0A0"/>
<path transform="translate(1132,116)" d="m0 0h2l-2 11v6l2 3 3-8 3-9h2v9l-5 18 1 3 3 1-1 5-5 12-1 4h3l-2 4h-2l-1 2-2 2-2 6h-2v-7l4-5 2-5v-5l-2-1 1-7-4 2-3 10-2 9-2 1v-5l-2-1 4-1 1-11h-2v-5l-4-5 2-1 3 2 2-2 5-21z" fill="#DBD7D5"/>
<path transform="translate(1129,207)" d="m0 0 4 1-2 4h-2l-2 5 2 1-4 2-2 5h3l7-10 1-3 6 1-4 4 4 1v2l-8-1-2 4-1 4 1 3-5 1-1 2 5-1 3-2-3 9-2 1 3 2-4 2v-2h-7l-2 5h-2v3l9-1v2h2v3l3 1-11 1-4-1-1 4-3 1-2-6 2-4-2 1 1-16 5-3 5 2 1-7h-3l-2-6-1-4 4-2-1 5 4 1v-4l3-1 3-5z" fill="#DAD2CF"/>
<path transform="translate(1258,500)" d="m0 0v3l-10 6-2 7h2l1 6h-2l1 4 5-2-1-6h3v5l3-1 2-4 1 4-2 4-4 3h-9l1 5 2 1 2 4-1 5-3 1-2-1v-2l-9-3-2-4-10-4-2-5 5-1 5 1 2-4-1-7-1-2 3 1 1 6h2l3-9 9-7z" fill="#D8B7B9"/>
<path transform="translate(1117,888)" d="m0 0 5 2 5 4 9 2v7l10 9-1 4-5 3-1-5 3-2-21-3-12-3-3-3 1-6 3-6z" fill="#E1D1CD"/>
<path transform="translate(1033,190)" d="m0 0 2 1 2 12 6 7v2l4 2 5 2 1 2-5-1-4-2-7-1-1 3-3-2-3 19-2 2-1-7-2-1 2-12-11 9h-3l4-7 6-7v-6l-6-8-2-3v-3h6l7 9 4-9z" fill="#DBD8D7"/>
<path transform="translate(989,737)" d="m0 0h1v5l2 1-6 2 1 10h3v-6l4-4-2 9h3l1-4 4-4 4 1v3l4 1-4 5-4 1-2-1-1 5h2v2h2v3l4 1v2h-4l1 4-5 1h-3l-1 2-5-2v-2l-4-2-2-7v-5l-2-1-1-3 6 1-3-4 1-7 3-4h2z" fill="#DCBABD"/>
<path transform="translate(985,725)" d="m0 0v3l-3 5-4 6-1 3v11l2 21 5 3 1 2 3 1v2l3 2-24-1 4-2h2l-7-14v-11l2-8 4-6 5-9h2l2-4z" fill="#E6D8D9"/>
<path transform="translate(1104,277)" d="m0 0 3 1 4 13 4 9 3 10 6 16 5 13 2 10 3 8 4 16 2 5-1 3-3-5-5-13-3-7-1-11-3-3v-4h-2l-2-5-3-8-2-10-3-1v-7h-2v-2l-3-1-1-4 1-8-5-12z" fill="#627C7A"/>
<path transform="translate(1135,254)" d="m0 0 10 1 4 4-1 2h-18l-3-1v2h23l3 3-2 2 2 1v2l-2 1 9 2-1 2h-7l-1 2-10-3 3-1v-2h2v-2h-5v2l-8 1v-1l-8-1-1-4 1-2-5 1-4-2-3-3 7-3h9l1-2z" fill="#C2D4D0"/>
<path transform="translate(1232,546)" d="m0 0 8 1 12 4 2 2 11 1v3h-3l2 5-8-1-10-2v2l-9 1-7-3-2-2-6-2 1-3-25-1v-3h17l15 1v-2z" fill="#E0CFCC"/>
<path transform="translate(1201,128)" d="m0 0 3 1-4 7-4 3-2 8-2 1 1 7-5 1-2 2 3 2-9 6-4 2-3 5h3l-1 5-13 12-9 9-2-1 4-4 5-10 8-9 4-9 9-13 2-5 4-4 1-5h2l1-2 2 1 2-4 4-5z" fill="#B8CECB"/>
<path transform="translate(1302,554)" d="m0 0h7l1 5 2-4 4-1 11 4 5 5v2l-5-2-9-6-4-1v6l-2 6 2 3-1 23-2 6-2 7h-1v-7l-4 1 1-4 1-9-2-5v-14h-2l-1-6z" fill="#5C7976"/>
<path transform="translate(962,685)" d="m0 0 9 3 2 2-1 3-1-2-4-1-1 5h-2l-1 5-4 2-1 4-1 2 4 1-4 4-12 1v2h10l2 2-4 2v-1l-16-1-3-1-1 2-9 2 3-4h4v-2h7v-7l-4 6-3-1-1-5 1-2 9-2 6-3 2 1-5 3 1 3h2l1 2 6 1 1-4h2l1-4-5-2-2-5 4-2 2-2 1-4 5 1z" fill="#E6D9D9"/>
<path transform="translate(1087,126)" d="m0 0h4l2 4v7l4 7 3 11-1 3-4-9 1 13 1 2v11l1 13h-4l-1 3h-7l2 5v8l-2-1-3-11-2 2-2 5-1 7-5 1-2-2 1-5 7-12v-2l-3-2h7l1-3 4 1 7 5-1-3h2l-2-17-4 2-2-4 2-5h3l-1-8-2-5h2l-3-14z" fill="#CBD4D0"/>
<path transform="translate(1202,71)" d="m0 0h2l-2 11-3 11 12-2 4-3h2v-2l3 1v2l-5 4-7 8-9 7h-10l-2-1 1-4 1-5-4-4h4v-3l4-1 7-14z" fill="#E0D6D5"/>
<path transform="translate(1166,258)" d="m0 0h9l-1 4h-3l-1 5 3 3 5 1 1-4-1-3h2v-5l3-1v8l2 2-3 2 4 3-3 1 2 4 6 1 1-3h6v2h4v9l-3 1-3-2 2-1 1-3h-10l-17-3-8-2-1-4 4-1v-2l-8-2 1-4h4l1-2h-9l-1-2 6-1z" fill="#6FCBC8"/>
<path transform="translate(957,758)" d="m0 0h1l1 9h5l4 7-5 7h-13l-5-2-7-1v-1l6-1h-13l5-4 4-1 1-1 5-6 9-3z" fill="#5F7573"/>
<path transform="translate(1038,740)" d="m0 0 4 4 4 12 2 14 1 4h-5l-2 8 3 1-1 2h-16l-4-2h2v-2l6-2v-2h2v-2l3-2-1-3-2-1 1-4 3-7z" fill="#8B5263"/>
<path transform="translate(1109,264)" d="m0 0h5l2 3-3 1v2h9l2-3 1 2 10 1 1 1h5v-2h5v2h-2v2l-12 3-4 2h-4l1-4-3-1-1 2-4-3v2h-2l2 9 3 1 4 4-1 3-4-1-4-2 4 9h-3l-2-6-3 1-4-10-3-10-2-4 2-2h5z" fill="#DAD2D0"/>
<path transform="translate(1332)" d="m0 0h12l-1 2 3 2-1 1h-5l-2 5-5 50h-1v-14l1-17v-11l-6 2-10 10-7 8-3 3h-3l1-5 9-10 11-11 5-6h2z" fill="#D3CCCC"/>
<path transform="translate(1282,475)" d="m0 0 2 3 2 13 4 8 1 9-1 2 2 1-3 1-2 3-6-5-2-3-2 2-8-4-1-3 7-8 5-5v-11z" fill="#D8B6B9"/>
<path transform="translate(1199,180)" d="m0 0h3l-1 4 5 2v2h-5l-10 7-6 3-3 2-1 5-1-4-1 1-1 7-5 7-4-1 4-3 1-5h3v-2l-8 2-1 5-14 10-2-1 5-5h2l-1-4h4l1-3h3l1-4 5-5 5-3-1-5 4-4h2l1-2h5l5-2 1 3-1 1 2 1 2-8z" fill="#EEE4E3"/>
<path transform="translate(1039,733)" d="m0 0 4 2 6 8 3 9 1 8v19h5l-4 4h-2v2h-8v-2l-2-1 1-6 1-2h5l-2-4-2-15-4-11-3-4z" fill="#BCA0A0"/>
<path transform="translate(960,746)" d="m0 0h2l-2 8-1 11h-1l-1-5-6 4-6 2-3 4-1 3-1-2-5 3h-2l1-5 6-5v-2l-4-1 2-9 4-4h13z" fill="#BCA0A0"/>
<path transform="translate(1e3 732)" d="m0 0 8 6 2 3 3-9 2 2 5 13v5l-3 2 1 2-3 3-17-1-2-1 1-2 3 1 3-1 3-4-3-1-2-5 2-2-6-2h-5l3-1v-2l6-1z" fill="#D4B5B7"/>
<path transform="translate(1158,277)" d="m0 0 13 2v2h7l7 2 1 8h2l1-2 4 3-6 4-2-1v8l-4-3h-3l-1-3-1 2-6 1v-3h2v-5l1-1-2-2 1-1-16-6z" fill="#71CBC8"/>
<path transform="translate(1039,728)" d="m0 0 8 6 5 6 6 14 3 15v9l2 4h-3v3l-3 1h-25v-1h20v-2l4-3-3-1-1-19-2-12-5-10-6-5z" fill="#DBB9BC"/>
<path transform="translate(1129,155)" d="m0 0h2l-1 7 3 1v5l-3 6-3 5-1 6-5 6-4-1-4 7h-2l1-9 3-9 1-4h-2l-2 4v-5l3-2h5l1 4 3-11 3-9z" fill="#73CBC8"/>
<path transform="translate(1237,352)" d="m0 0 2 1-8 5-2 1v3l-10 4v2h-2l-1 2h-6l-11 6-8 3v1l20 2v1h-13l-12-2 1-2-4 1 3-3 21-12-4-3v-2l2-1-1-3 5 1v-3l6 6 6-2 5-1z" fill="#C7DDDA"/>
<path transform="translate(1246,529)" d="m0 0h5l11 9v2l3 1-5 4-7 4h-2v2l-8-2-11-6-2-1-3-6v-3l3-1 5 3 1 4 6 1 3 2v2l5-1v-6l-3-3z" fill="#BC9F9F"/>
<path transform="translate(924,778)" d="m0 0h10v1l-7 1-1 2h-3l1 18 3 7 9 3 27 4 34 2 1 3h-14l-31-3-22-4-10-4-3-5v-13l2-9z" fill="#DCE4E3"/>
<path transform="translate(1334,491)" d="m0 0 3 3 1 7 3 2 2 7v8l-6 12-5 3-5 1 9 1v2h-15l-4-3 7-2 5-4 2-3 2-11v-22z" fill="#BCA0A0"/>
<path transform="translate(1331,780)" d="m0 0h9l-3 2-18 3v2l-9 2-11 2-8 4-2 4v12l-3-1-3-8-3-3-1-4 5-6 9-3z" fill="#BBA0A0"/>
<path transform="translate(1203,823)" d="m0 0h2l-4 18-1 9v42l6 9 3 4v10l-4 6-1-2-1-5-2-6v-3h4l-4-4-3 1-6-4 2-11h2l2-46 2-10z" fill="#597672"/>
<path transform="translate(1110,98)" d="m0 0h2v9l-1 4-1 18-1 2v9l2 1 1 6h-2l1 5v22l-1 5-2-2-4-1-1 3-1-1-2 3-2-4 3-3 4-1-3-5 3 1 1 2-1-8-1-3 2-4h2v-3h-6v-3h3v-8l2-12 2-31z" fill="#CED3D0"/>
<path transform="translate(913,727)" d="m0 0 15 1 4 1v2l-15 8h-6l-2 1-1 5h-3v-3l-4-2-5-4-1-3 2-2 11-1z" fill="#DBB9BC"/>
<path transform="translate(1234,1180)" d="m0 0 1 2-7 3-22 5-15 2-34 1h-62v-1l43-1 29-2 13-1h8l16-2 13-1 9-3z" fill="#70CCC9"/>
<path transform="translate(989,713)" d="m0 0 2 4h3l-5 4-3 1-9 9-7 9-7 14v13h-4v-13l5-12 1-2-9 4-9 3-4-1 18-8h2v-2l7-5 3-1 4-8 4-2v-2h2l1 2h2v-2l2-1z" fill="#E1CFD0"/>
<path transform="translate(929,355)" d="m0 0 4 1-9 6h-3v2l-6 3-9 5h-2v2l-5 1v2l-6 3h-2v2l-8 4h-2v2l-10 5h-2v2l-5 1v2l-10 5-7 5h-5l1-3 29-17 14-8 19-11 11-7h4v-2z" fill="#DFE0DE"/>
<path transform="translate(989,702)" d="m0 0h2l-1 11-2 5h-2v2l-4 1 1-3h-2v2l-4 3-2 3-22-1v-2l11-5h8v-2h2v-2l3-2 5 1 4-9z" fill="#BA9D9E"/>
<path transform="translate(1031,732)" d="m0 0 3 2 1 6h1l1 9-5 5-3-1-1 3-5 2-2 3h-5l-2 4h2v2h5v2l-8 2h-4v-2l-3-1 4-2v-3l-7-2-1 3-3-1v-2h-2v-4l16 1 3 1 1-3h2v-2l10-4 1-9 2 3z" fill="#D1B0B3"/>
<path transform="translate(1220,579)" d="m0 0v3l1 7 4 4v8l4 11 4 1 11-2 2 2-9 4-8 1-5-2-4-9-3-5-1-6-1-1-1-8-1-2 1-3z" fill="#B1B8B2"/>
<path transform="translate(1153,326)" d="m0 0 4 2 6 7v2l3 1 2 2h2v-4l-4-2-1-4 4 1 4 6 13 12 5 5v4l-4-1-10-10v-2h-2l1 4 4 8-4-1-2-1v-2l-5-1-1-5-5-5-8-11-2-2z" fill="#87CFCB"/>
<path transform="translate(1093,1048)" d="m0 0 1 2-3 5-3 4h-2l-2 4-10 8-4 7-10 8-5 9-8 19-5 2 2-6 5-11h2l2-9 6-9 11-10 6-8 13-10z" fill="#C6E0DE"/>
<path transform="translate(967,690)" d="m0 0 5 1 1 2v13l-13 10-5 1-10-1v-2l12-2 3-3-3-1 2-6 4-4 1-3 2-1z" fill="#DAB8BB"/>
<path transform="translate(890,748)" d="m0 0h5l3 3 1 5 13 14 4 3-18-1-6-1-1-9 2-4-1-4-2-3z" fill="#DAB9BC"/>
<path transform="translate(933,348)" d="m0 0h3v2l-10 5h-2v2l-5 1v2l-14 7-7 4h-2v2l-7 2v2l-16 8-9 6-8 4h-3l1-4 13-7 22-12 3-2h4v-2l24-13z" fill="#DEDFDD"/>
<path transform="translate(1295,331)" d="m0 0 3 2 4-2 3 1-1 1h5v4h-3l1 3-8 2 2 3-2 4-4-2v-2l-3 3-3 4-3 6h-2l3-9 2-5h-5v-3h3l-1-8 4 2 3 1v-3h2z" fill="#A3CDC8"/>
<path transform="translate(1040,728)" d="m0 0 5 2 5 4 9 13 4 8 3 10v16l1 2-1 3h-9l3-1v-3h3l-3-4v-9l-3-15-6-14-5-6-6-5z" fill="#E1D1CD"/>
<path transform="translate(949,697)" d="m0 0 3 2v2l6 1-2 5h-2l-1 4h-6l-5-4 1-3 1-1-8 3h-5l1 7h2l3-6 2 1-1 7-4 1-3-1v2l-2-1-1-2-3-1-1 3v-5l3-2 3-7 2-1h8z" fill="#DCBABD"/>
<path transform="translate(1125,185)" d="m0 0 1 3v2h3l2 3-1-6 2-1 2 2v2l4 1 1-4 2 5 3 1v4l-8 1-5-1h-4l-6 13-1-3 1-5-2 3-3 10-2-3 2-9 1-10h6l-4-2 5-5z" fill="#C9D4D0"/>
<path transform="translate(883,741)" d="m0 0h3l1 6h5l-2 1 3 6 1 4-2 4v9l-5 1-6-13v-14z" fill="#F3ECEB"/>
<path transform="translate(1102,233)" d="m0 0h8l-1 17 2-2v3l-2 4 2 4 2-1 1-3 4-1v2l3-1h8v2l-9 1-6 2 3 2-4 1-9 2 3-3h-3l2-8v-7l-1-6-4-1-1 6-7-1v-3h2l1-3h2l1-3 3-1z" fill="#E8DCDD"/>
<path transform="translate(907,705)" d="m0 0h4v6l-3 3 2 4-4-2 1 5h-4l-1-4h-2l1 7 3 5-8 2-4 2-1-3 1-3 7-2-5-10v-2h-2l-1 2 1-4 8-5h6z" fill="#E1D9DA"/>
<path transform="translate(1145,250)" d="m0 0 14 1v2l-5 2-2 1-1 3 11-4 9 1v-2l3 1-1 2 7-1-1 3h-13l-9 1-1 1h11l-2 1-2 4-9-3v2h2l-1 3-11-1v-1l8-1-2-2-23-1v-2h21l-1-3-5-1 3-3z" fill="#D8D5D2"/>
<path transform="translate(892,713)" d="m0 0h2l6 12-2 2h-6l1 5 5-3 10 1v1l-11 1-1 4 4 2 5 4v3l3 1h-5l-8-7-7-8-4-5-4-2 2-3 9-3z" fill="#E4D7D9"/>
<path transform="translate(1341,542)" d="m0 0 2 1-5 7 2 5-1 4-2 2-2-1-1 2-1-4-1 3 2 3-4-2-3-2v-2l-4-1-8-3 5-5 4-2h7l2 3 6-5z" fill="#39AAA5"/>
<path transform="translate(1140,119)" d="m0 0h2v9l-5 18 1 3 3 2h-3l-1 7-4 4-1-5 3-6v-7l-4 9-1-2h-3l2-16 2-4 3 5 3-8z" fill="#7ACBC7"/>
<path transform="translate(911,708)" d="m0 0 7 2v4h2l-2 9 10 2v1l-10 1-3-1h-13l-2-2v-7l3-1 1 3-1 2h4l-1-5h3l-2-3 3-2z" fill="#D7B6B8"/>
<path transform="translate(807,92)" d="m0 0 3 1v2l4 2 9 5v2l5 2h3l6-2 1 3-1 2h4l-3 6 4 1v2l7 2 6 4 3 1 1 3-9-3-8-5-6-2h-6l-2-8-5-3-1-2-5-2v-2l-8-4v-2h-2z" fill="#E6E2E0"/>
<path transform="translate(1197,170)" d="m0 0h2l1 7 9-1-3 4v6l-5-1v-3l1-2-5 1v5l-2 3-3-1 1-4-5 3h-4l-1-4h3l-1-5-3-1v-3h6l4 3h2l-2-6 5 1z" fill="#CFCFCB"/>
<path transform="translate(988,722)" d="m0 0h16l10 2 10 4 5 4 1 5-6-5-4-1 6 6-1 2-9-8-8-3-5 1-8 5-2-1 2-7 6-2-10 1-7 5 2-7z" fill="#BCA0A0"/>
<path transform="translate(1315,462)" d="m0 0 12 3 10 6 2 4-3-2h-8l-5-3v-2l-13 1v3l-4 1v-2l-9-1v-4l3-2z" fill="#B39D9D"/>
<path transform="translate(1110,226)" d="m0 0 4 1 2 6-9 1-5-1 1 3-4 1-5 6-2 5-1-2h-2l1 5h-3v-2l-3-1-3-5 1-3v2h3l1-3h3l-2-4 2-1 4 2v-2h6v-3l5-1 1-2h2l2 3z" fill="#DED2CE"/>
<path transform="translate(989,132)" d="m0 0 4 2 11 11 1-2h2l4 12h5v6h2l3 5 4 4 7 8 15 15-1 2-6-5-7-8-17-17-1-4-4-2-11-12-8-9-2-1z" fill="#E3E0DE"/>
<path transform="translate(1183,153)" d="m0 0 2 1-12 19h3l-1 5-13 12-9 9-2-1 4-4 5-10 8-9 4-9 8-11h3z" fill="#A6CFCB"/>
<path transform="translate(1097,203)" d="m0 0 1 3h4l-1 7-2-1v11l9 1 2 1v6l-2 1-1-4h-2l-2 4-4-1v3l-7 1 1-5h2l-1-12-1-5-3-1 6-6z" fill="#B6D4CF"/>
<path transform="translate(1333,17)" d="m0 0h1v12l-1 24h1v8l-3 27-2 4 1-34 2-33-3 3-5 11-1-3 1-4-1-2 3-7-2-1 4-4z" fill="#37ACA7"/>
<path transform="translate(942,695)" d="m0 0h5v2l2 1-3 2-8 2h-8l-1 4-2 4-2 1-1 8-3 1 2 2-3 2-3-1 3-9h-2v-4l-3-1 3-2 4-2 9-7z" fill="#E0D0CC"/>
<path transform="translate(1105,197)" d="m0 0 2 2-1 11 1 4h-3v6l2 1 2-3 3 2v2l4-1 1-2 1 8h3l-1 7h-3l-3-7-5-2-9-2-1-4v-9l2 2 2-6h-4v-3l5-1 1 2z" fill="#E3D7D5"/>
<path transform="translate(1128,262)" d="m0 0h22l3 3-2 2 2 1v2l-2 1 9 2-1 2h-7l-1 2-10-3 3-1v-2h2v-2h-5v2l-8 1-8-4 4-1 7 1 3-2-6-2-5-1z" fill="#72CCC9"/>
<path transform="translate(1069,257)" d="m0 0 7 1 2 4 4 2v3h-15l-11 1-35 1v-2l6-1 26-1 3-3v-3l7 2v2l4-1v2h5l1-3 2-1-6-2z" fill="#E4DCDC"/>
<path transform="translate(1212,187)" d="m0 0 2 1-3 1-1 4-2-1v2h-2l3 6v2h-2l-3-5-6 2-11 7 3 2 3 3-4 3h-8l-1-6-3 5h-3l4-6v-6l4-1 1 4 5-2 1-2 5-2 8-6 5-3z" fill="#A3CDC9"/>
<path transform="translate(1196,238)" d="m0 0 1 2-1 3 5-2 1 4-2 3 17-3 4 1-10 4-16 3-1 1-13 2 4-4-1-2h3v-2l3-3z" fill="#B5D2CF"/>
<path transform="translate(1129,207)" d="m0 0 4 1-2 4h-2l-2 5 2 1-4 2-2 5h3l7-10 1-3 6 1-4 4 4 1v2l-8-1-2 4-1 4 1 3-5 1-1 2-5 1 1-7h-3l-2-6-1-4 4-2-1 5 4 1v-4l3-1 3-5z" fill="#DFD4D2"/>
<path transform="translate(1202,71)" d="m0 0h2l-2 11-3 11 12-2 4-3 2 1-5 4-3 1h-11v-7l-2 4h-2l-1 3-2 1 1 6-3 5h2v-2h2v-2l10-6 3 1-5 5-4 3-2 3h-6l-2-1 1-4 1-5-4-4h4v-3l4-1 7-14z" fill="#80C7C4"/>
<path transform="translate(1011,1183)" d="m0 0 9 1 10 2 43 5 22 1v1h-12v2l-20-1-28-4-21-5z" fill="#27847E"/>
<path transform="translate(970,728)" d="m0 0h2l-2 4-5 4h-2v2l-14 6-6-1 1-5 1-3h2v-2l13-2z" fill="#BCA0A0"/>
<path transform="translate(1193,263)" d="m0 0 2 1v2h2l-1 4 3 1v2h-2v2h7l-1 16-5-1-4-4 7 1 1-9h-4v-2l-6 1-1 2h-6l-2-4-4-2 5-1-3-3 11-2z" fill="#C6D4D0"/>
<path transform="translate(1518,308)" d="m0 0 4 1 1 4-2 3v9l-4 3-4 1-4 6-3-1 1-11 2-6 3-1 2 1 4-1 1-3h-2z" fill="#118F89"/>
<path transform="translate(1123,267)" d="m0 0 2 2 10 1 1 1h5v-2h5v2h-2v2l-12 3-4 2h-4l1-4-3-1-1 2-4-3v2h-2l2 9 3 1 4 4-1 3-4-1-5-4-1-15 7-1h2z" fill="#CAD3CF"/>
<path transform="translate(1246,216)" d="m0 0 6 1 3 2-11 3-3 2-10 3-1 3h-12l-9 1 1-3 10-4 1-1 14-2 10-4z" fill="#73CCC9"/>
<path transform="translate(1272,169)" d="m0 0h4l-1 3-14 7h-4v2l-19 9h-2v2l-8 4-5 2h-3l2-4 48-24z" fill="#B8CCCA"/>
<path transform="translate(1116,148)" d="m0 0 2 1 4 5-1 5h2l-1 11-9 3v-21z" fill="#72CBC8"/>
<path transform="translate(1263,505)" d="m0 0h1v11l-1 2-3 1-2 4h-3l-1-5v2l-1 5-5 2-1-5h2l-1-8 6-4 7-1z" fill="#BC9D9F"/>
<path transform="translate(1222,554)" d="m0 0h13l17 1-2 2 6 1 3-2-3-2h9v3h-3l2 5-8-1-10-2v2l-9 1-7-3-2-2-6-2z" fill="#D6B8BA"/>
<path transform="translate(1282,376)" d="m0 0 6 2 6 4 3 1v2l5 2 42 28 1 2-5-1-15-10-16-10-9-6-11-7-7-5z" fill="#70CCC9"/>
<path transform="translate(1172,205)" d="m0 0h5v2l-3 1-1 5-3 2-2 4-8 3h-3v3l-7 3-6 2 5-5v-2h-3l-3 4-3-1 6-6 5-1 2-1 1 3 14-10 1-4z" fill="#8BC8C4"/>
<path transform="translate(914,773)" d="m0 0 5 1 7 2-1 2-5 1-7-1-12 6-11 7-13 6-3-1 8-6 14-6 9-8 3-2z" fill="#507B77"/>
<path transform="translate(1590,591)" d="m0 0 5 1-1 7-4 10-3 2h-7l-1-5 4-6 4-4z" fill="#118F89"/>
<path transform="translate(977,294)" d="m0 0h6v2l-14 4-10 4-13 5-4 3h-2v-8h5l-1-5 3 2v2l7-4h2v2l10-3 8-3z" fill="#ECE6E5"/>
<path transform="translate(1138,332)" d="m0 0h2l2 7v4l2 1v4 5l-4-2v-2l-6 1-4-4 1-4 2-4z" fill="#D1D5D2"/>
<path transform="translate(927,110)" d="m0 0 4 1 16 16v2l4 2 5 4 5 5v2l-5-2-2-1v-2l-5-2-11-10-5-5-6-7z" fill="#E7E2E0"/>
<path transform="translate(1076,184)" d="m0 0 10 1 1 8 1 3v8l-2-1-3-11-2 2-2 5-1 7-5 1-2-2 1-5 7-12v-2z" fill="#DFDCDB"/>
<path transform="translate(1112,314)" d="m0 0 3 1 5 17 2 2v4h2l2 5 2 4 1 9 4 9 2 5-1 4-5-11-6-14v-2l-2-1-3-12-6-17z" fill="#B1A3A2"/>
<path transform="translate(1166,221)" d="m0 0 2 1-1 2h5l-1 2h-3v2l-3 3-1 3-2-1 1-3-18 8-5-1-5 2 4-4 7-4 7-2 4-3 8-4z" fill="#7FCBC8"/>
<path transform="translate(933,810)" d="m0 0 22 3 8 1 34 2 1 3h-14l-31-3-18-3-2-1z" fill="#D2E1DF"/>
<path transform="translate(1e3 326)" d="m0 0 4 1v3l-5 5-13 12-6 4 1-6 10-11 2-5z" fill="#DFE2E1"/>
<path transform="translate(1171,274)" d="m0 0h12l2 4 6 1 1-3h6v2h4v9l-3 1-3-2 2-1 1-3h-10l-12-2-8-3z" fill="#65C6C2"/>
<path transform="translate(1015,191)" d="m0 0h6l6 8 2 4 3-7 2 3 1 3-1 5 3 1-1 4-7-1-3-6-5-3-6-8z" fill="#F3EBEA"/>
<path transform="translate(1143,214)" d="m0 0 2 4h2l-2 4-4 4 3-1 2-3 5 1-10 10-7 3-5-1 4-7 5-5 3-1 2-5z" fill="#DDD8D6"/>
<path transform="translate(1307,1186)" d="m0 0h6l-3 2-42 4-2 1-55 4h-11v-1l45-4 38-4 18-1z" fill="#1E9B95"/>
<path transform="translate(1285,460)" d="m0 0h8l-4 2-5 7h-2l-2 4-5 5-4 6h-1v-8l2-6 2-1 3-5 7-3z" fill="#B5A2A1"/>
<path transform="translate(977,767)" d="m0 0h1l1 7 5 3 1 2 3 1v2l3 2-24-1 4-2h2l-5-10h8z" fill="#DBBDBF"/>
<path transform="translate(1120,201)" d="m0 0 2 1-2 11-5 5-2 4h-2l-3-3-2 3-3-2 1-6h3v-4h2l1-6 2 1v7h3z" fill="#7BCDCA"/>
<path transform="translate(1117,888)" d="m0 0 5 2 5 4 8 2v2h-17l-3-1-5 1-2-1 1-5 5-3z" fill="#E1D9D7"/>
<path transform="translate(1138,273)" d="m0 0 5 1 8 2-1-1 4-1 6 1-3 6 12 5 5 2-3 1-6-1v-2l-11-2-12-5-10-3 3-2z" fill="#CCD4D1"/>
<path transform="translate(1027,246)" d="m0 0v3l-6 7-3 5h17l-2 4h-15l5 11-1 3-6-11v-2l-4 3v-4l-2-1 4-3h2l2-5 5-9z" fill="#E2E3E1"/>
<path transform="translate(1104,277)" d="m0 0 3 1 4 13 4 9 3 10 1 2v6l-4-5-1-3 1-2-2-1-5-11-6-17z" fill="#875766"/>
<path transform="translate(1339)" d="m0 0h5l-1 2 3 2-1 1h-5l-2 5-5 50h-1v-14l1-17v-11h-4l6-8z" fill="#70CCC9"/>
<path transform="translate(957,758)" d="m0 0h1l1 9h5l1 3h-5l-5-3h-7v1l7 2v1l-11 1v2l-6 2h-7l5-4 4-1 1-1 5-6 9-3z" fill="#8B5263"/>
<path transform="translate(1e3 746)" d="m0 0 4 1v3l4 1-4 5-4 1-2-1-1 5h2v2h2l-1 5-3 1-1-4-8-4v-1l5-1 4-10z" fill="#DCBBBE"/>
<path transform="translate(1016,737)" d="m0 0 3 4 2 9-1 3-2 1 1 2-3 3-17-1-2-1 1-2 3 1 3-1 4-4 3 1 1-5 4 3 1-3z" fill="#BCA0A0"/>
<path transform="translate(1073,231)" d="m0 0 2 2-4 7-3 2v3l1 5 2 1v2l-5-2-1 2 4 1-1 2-6-2-5-1-1-4-2-1v-2l4-1 5 1 1-6 5-5h2l1-3z" fill="#E8DBDC"/>
<path transform="translate(1173,72)" d="m0 0 4 1-2 7 1 5 3 5-10-1v2l-4-1-1-8 3-1 3-8z" fill="#94C7C4"/>
<path transform="translate(1129,237)" d="m0 0 7 7 2 1-6 2-2-1-1 4 3 1v2l-5-2h-3v-2l-6 1h-3v-3l3-3 1-2h7v2l3-2-3-2 3-1z" fill="#DFD7D5"/>
<path transform="translate(998,740)" d="m0 0 7 2-9 9-1 3h-3l1-8-2 3-1 6h-3l-2-10 8-4z" fill="#8F5867"/>
<path transform="translate(1183,256)" d="m0 0h5l-1 7-1 4-4-1v-7h-2v5 4h-2v3h-5l-4-4 1-5 2-1 2 1 1-3z" fill="#37ACA7"/>
<path transform="translate(997,757)" d="m0 0 16 1 2 1-1 6h2v2h5v2l-8 2h-4v-2l-3-1 4-2v-3l-7-2-1 3-3-1v-2h-2z" fill="#DBBABD"/>
<path transform="translate(881,384)" d="m0 0 3 1-3 1v2l-10 5h-2v2l-5 1v2l-10 5-7 5h-5l1-3 29-17z" fill="#E1E2E1"/>
<path transform="translate(1280,352)" d="m0 0h2l-1 4-6 9v4l-3 6 3 1-1 2h-9l-9-4-1 2v-3l5-1 2 1-1-7 3 2 1 4 4-1 1-4-2-1 4-1z" fill="#70CCC9"/>
<path transform="translate(977,703)" d="m0 0v3l-1 3-8 4-2 3h-3v2l-3 1-3 3-8 4h15v1l-18 2-4-1 6-4 2-3 6-3 13-10z" fill="#F3EAEA"/>
<path transform="translate(1311,595)" d="m0 0h1l1 31-1 27-2-3-1-7v-37z" fill="#719391"/>
<path transform="translate(1217,364)" d="m0 0h6l-4 2v2h-2l-1 2h-6l-11 6-8 3v1l20 2v1h-13l-12-2 1-2-4 1 3-3 14-8 3 1h-2v2z" fill="#81CECA"/>
<path transform="translate(1426,49)" d="m0 0 4 2 1 1v6l-2 5v4l-6-2-3-2v-2l-2-1 4-8 4-1z" fill="#118F89"/>
<path transform="translate(985,725)" d="m0 0v3l-3 5-4 6-2 7-3 3h-2l-2 10-1 11-2-3v-11l2-8 4-6 5-9h2l2-4z" fill="#D9B8BB"/>
<path transform="translate(1074,114)" d="m0 0h2l9 42 5 21-1 3-3-7-4-15-5-25-3-14z" fill="#DEDEDC"/>
<path transform="translate(1101,265)" d="m0 0 2 1 1 5 2 6-3 3 5 12-1 8h-1l-1-7h-2l-6-16v-3h5l-3-1 1-7z" fill="#AF9E9E"/>
<path transform="translate(933,748)" d="m0 0 3 1-6 4-12 2-12-1-9-3-1-2h11l6 1h10z" fill="#E6D9DB"/>
<path transform="translate(1061,227)" d="m0 0 2 2h-2zm7 1 1 4h-2l-1 4-3 2-4-2v3l3 1-2 3-1 1-4 1-3-1-2-4 3-1v-2l4-4-2-1 4-3h2v2l6-1z" fill="#B3D2CE"/>
<path transform="translate(1229,532)" d="m0 0 6 3 1 4 6 1 3 5 2 4-2 1-6-3-9-5-3-6v-3z" fill="#855363"/>
<path transform="translate(1195,252)" d="m0 0 3 1-2 3 2 3h-3l2 7h-2l-1-2-2 4h-7l1-5 1-6-3-2 10-2z" fill="#6CCAC6"/>
<path transform="translate(1294,1131)" d="m0 0h87v1l-22 1-59 1-9 1v-3z" fill="#1E9E98"/>
<path transform="translate(1218,373)" d="m0 0 15 5 8 1v2l6 1-1 3-4 1-24-2v-1l16-1-17-5z" fill="#73CCC9"/>
<path transform="translate(1116,186)" d="m0 0 2 4 9 3v1l-10-1v10l-3 9h-2l-1-7-1 3-1 4v-2h-2l3-14h3z" fill="#E4D6D4"/>
<path transform="translate(1239,372)" d="m0 0 9 4 8 2 1-2 3 3h-4v2l7 1v3l-6 1h-11l2-1v-4l-3-1 4-1 3 1v-2l-9-1-4-2z" fill="#6FCBC8"/>
<path transform="translate(1209,320)" d="m0 0 4 1 1 2 6 1 5-1-2 4h-2l-1 4 4 5h-4l-3-3h-7v-6l-1-4z" fill="#92CFCC"/>
<path transform="translate(926,354)" d="m0 0 2 1-3 3-5 2v2l-7 3-17 10-13 8-3-1 4-4 5-1v-2l4-2h3v-2l20-11h3v-2l5-1v-2z" fill="#7BCDCA"/>
<path transform="translate(1135,706)" d="m0 0h1v6l-1 2-1 21-4 1-1-1v-13l2-10z" fill="#E0CFCC"/>
<path transform="translate(1256,374)" d="m0 0 5 1 5 2h8l-1 3-4 1v8h-3l-1-2-8-1v-1h6v-3l-7-1v-2l3-1-3-2z" fill="#B5D5D0"/>
<path transform="translate(1052,272)" d="m0 0 3 2 3 7 7 3 1 5 6-1v4l-5 3-2 1 1-4-9-3-4-10-3-3v-3z" fill="#D7D8D6"/>
<path transform="translate(1304,473)" d="m0 0 2 1-9 10-6 7-2-2v-9l8-5z" fill="#BCA0A0"/>
<path transform="translate(1165,330)" d="m0 0 4 1 4 6 13 12 5 5v4l-4-1-10-10-4-7-8-7z" fill="#B1D4D2"/>
<path transform="translate(1324,18)" d="m0 0h2l-1 4-8 8-7 8-3 3h-3l1-5 9-10 8-6h2z" fill="#DED7D6"/>
<path transform="translate(883,741)" d="m0 0h3l1 6h5l-2 1 2 6h-4l-2 6-3-1-1 2-1-2v-14z" fill="#E5DDDC"/>
<path transform="translate(1299,483)" d="m0 0h2v13l-2 12-2-4-4-6v-6l4-6z" fill="#D4B3B5"/>
<path transform="translate(1158,277)" d="m0 0 13 2v2h5l1 2h-4v2h2l-1 3-11-3-7-3z" fill="#62C4C1"/>
<path transform="translate(914,144)" d="m0 0h5l-1 10-3 7-4 1-2-2 1-8z" fill="#E1DCDB"/>
<path transform="translate(949,697)" d="m0 0 3 2v2l6 1-2 5h-2l-1 4h-6l-5-4 1-3 4-2v-3z" fill="#DDBDC0"/>
<path transform="translate(1140,119)" d="m0 0h2v9l-5 18 1 3 3 2h-3l-1 7-4 4-1-5 3-6 1-15 2-7 1-9z" fill="#7BCBC7"/>
<path transform="translate(902,716)" d="m0 0 2 3-1 2h7v-2h3v2h5v2l10 2v1l-10 1-3-1h-13l-2-2v-7z" fill="#D9BBBD"/>
<path transform="translate(1023,279)" d="m0 0 4 4v6h7l8-3h3v2l-13 5h-2v4h-5l-4-7-5-5 5 2 4 2z" fill="#D5DBD9"/>
<path transform="translate(1115,172)" d="m0 0h5l1 7-3 2 1 2v3l-2 4-4 7h-2l1-9 3-9 1-4h-2l-2 4v-5z" fill="#A7D0CC"/>
<path transform="translate(936,748)" d="m0 0h2l-1 5-6 10h-2v-2l-5-2-4-4 12-4z" fill="#DBB9BC"/>
<path transform="translate(1262,542)" d="m0 0 2 1 2 4 1 4-3 1 1 2h-11l-3-3v-2l10-6z" fill="#905969"/>
<path transform="translate(1093,1048)" d="m0 0 1 2-3 5-3 4h-2l-2 4-15 12h-3l6-7 5-6 12-9z" fill="#B8DCDA"/>
<path transform="translate(1133,316)" d="m0 0h10l3 3-1 4-11 3-4-7z" fill="#37ACA7"/>
<path transform="translate(884,376)" d="m0 0v3l-11 6-9 6-8 4h-3l1-4 26-14z" fill="#E2E0DF"/>
<path transform="translate(1033,219)" d="m0 0 3 1 2 5 5 3v2h3l3 6 2 1v2l-4 1v-2l-6-2-2-1-4-8v-2h-2z" fill="#EEE5E4"/>
<path transform="translate(1117,306)" d="m0 0 10 10 3 6 6 7h-3l-5-6-2 3-2 4-5-16-2-4z" fill="#CAD7D4"/>
<path transform="translate(1e3 694)" d="m0 0 3 3 2 5 2 11h-10l2-16z" fill="#DCBDBF"/>
<path transform="translate(1324,547)" d="m0 0h7l2 5h-2v2l-6 2-9-1v-3l5-4z" fill="#AE9C9C"/>
<path transform="translate(1095,162)" d="m0 0 2 2v11l1 13h-4l-1 3h-7l-1-4 1-2-3-1 1-3 4 1 7 5-1-3h2l-2-21z" fill="#ADD2CE"/>
<path transform="translate(1105,78)" d="m0 0h1v31l-1 28-2 3-1-5 2-44z" fill="#E3DEDD"/>
<path transform="translate(1145,250)" d="m0 0 14 1v2l-5 2-4 1v4h3v2h-26v-2h21l-1-3-5-1 3-3z" fill="#DFD6D4"/>
<path transform="translate(1110,98)" d="m0 0h2v9l-1 4-1 18-1 2-1 16-2 4v-13l1-8 2-31z" fill="#E1DCDA"/>
<path transform="translate(1203,823)" d="m0 0h2l-4 18-1 9-1 29h-2v-20l2-26z" fill="#5E7C78"/>
<path transform="translate(928,700)" d="m0 0 2 1-8 7-1 3 6-4v3l-2 1-1 8-3 1 2 2-3 2-3-1 3-9h-2v-4l-3-1 3-2 4-2z" fill="#E4D6D6"/>
<path transform="translate(978,690)" d="m0 0 8 4 4 1 1 5-11 1-4 1 1-10z" fill="#DCBABD"/>
<path transform="translate(1333,17)" d="m0 0h1v10l-3-2-7 14-1-3 1-4-1-2 3-7-2-1 4-4z" fill="#39ADA8"/>
<path transform="translate(962,685)" d="m0 0 9 3 2 2-1 3-1-2-4-1-1 5-5 3-2 1v-3l-2-1v-7l5 1z" fill="#DFC9C7"/>
<path transform="translate(1208,354)" d="m0 0 7 6 6-2 3 1-2 2-11 2-1 3-5 3-2-1 4-4-4-2v-2l2-1-1-3 5 1z" fill="#70CBC8"/>
<path transform="translate(1110,147)" d="m0 0h2l1 3v27l3-3 1 4-2 3h-2l-2 6-1-3z" fill="#E2D3D1"/>
<path transform="translate(1198,86)" d="m0 0 1 2-2 7h7l-5 5-6 2v2h-2v2h-2l2-5-1-6 2-2 4-2z" fill="#E8DFDE"/>
<path transform="translate(948,766)" d="m0 0h7l5 3v3l-5 3h-13l2-1v-2l10-2-7-2z" fill="#15766F"/>
<path transform="translate(1338,523)" d="m0 0 2 1-3 6-5 3-5 1 9 1v2h-15l-4-3 7-2 8-7 2 2z" fill="#C0A3A3"/>
<path transform="translate(1118,148)" d="m0 0 4 2 3-2v6l3 1-4 12-2 9-2 1v-5l-2-1 4-1 1-11h-2v-5l-4-5z" fill="#EAE6E4"/>
<path transform="translate(956,692)" d="m0 0 3 3 1 3 4-3-1 5-4 2-1 4-1 2 2 1-6 1 1-3h2l1-4-5-2-2-5 4-2z" fill="#E5D7D7"/>
<path transform="translate(1169,23)" d="m0 0h9l14 5 3 2 7 1v2l2 1h-6l-9-3-5-1v-2l-7-1-7-2z" fill="#3DAFAA"/>
<path transform="translate(907,705)" d="m0 0h4v6l-3 3 2 4-4-2 1 5h-4l2-9 1-2-2-1v2l-7-1-2 1 1-3 4-2h6z" fill="#E2D8D9"/>
<path transform="translate(1202,71)" d="m0 0h2l-2 11-3 11 12-2 4-3 2 1-5 4-3 1h-11v-7l-3 4 1-6 5-13z" fill="#A0C7C4"/>
<path transform="translate(1131,350)" d="m0 0 2 3 5 20 2 5-1 3-3-5-5-13-3-7v-5l2 1z" fill="#5F8380"/>
<path transform="translate(1110,179)" d="m0 0h1v7l2-5 1 3-6 24-2 5h-1l1-14 3-18z" fill="#F5EDEC"/>
<path transform="translate(1138,151)" d="m0 0h3l-2 6-5 14h3l-2 4h-2l-1 2-2 2-2 6h-2v-7l4-5 5-14z" fill="#D5D9D6"/>
<path transform="translate(1107,958)" d="m0 0h1l1 51-3 15-3 4 2-16 1-1z" fill="#99D4D2"/>
<path transform="translate(989,713)" d="m0 0 2 4h3l-5 4-3 1-9 9h-3l1-5 3-5 3-1v-2h2l1 2h2v-2l2-1z" fill="#E3D1D1"/>
<path transform="translate(961,707)" d="m0 0h7v3l-10 7-13-1v-2l12-2z" fill="#DDBFC1"/>
<path transform="translate(1265,394)" d="m0 0 2 1 1 10 2 4v3l-2 7 1 11-2-2-2-6-2-3 1-5 3-3-2-5v-10l-2-1z" fill="#678A88"/>
<path transform="translate(1199,180)" d="m0 0h3l-1 4 5 2v2h-5l-8 5-3-1 1-5-7 2v-2l9-3 1 3-1 1 2 1 2-8z" fill="#F2E9E8"/>
<path transform="translate(999,725)" d="m0 0h14l4 4h-7l-5-1-10 6-2-1 2-7z" fill="#D7B8BA"/>
<path transform="translate(1117,254)" d="m0 0 1 2 3-1h8v2l-9 1-6 2 3 2-4 1-9 2 3-3h-3l1-5 5-1 1 3 2-1 1-3z" fill="#E1D5D3"/>
<path transform="translate(1107,218)" d="m0 0 4 2v2l4-1 1-2 1 8h3l-1 7h-3l-3-7-8-3v-2h2z" fill="#E0D9D8"/>
<path transform="translate(963,740)" d="m0 0h2l-2 7-5 1-3 1h-13l-4 3 2-4 7-2 10-3z" fill="#DCBCBE"/>
<path transform="translate(1154,263)" d="m0 0 4 1 1 4h6l3 2-1 3h-10l-7-2 1-2 2 1v-2l3-3h-2z" fill="#D2D3CF"/>
<path transform="translate(1168,227)" d="m0 0 4 1-1 6-2 7-6-2-3-3 4-3 1-4z" fill="#37ACA7"/>
<path transform="translate(1174,173)" d="m0 0h2l-1 5-13 12-9 9-2-1 4-4 4-8 4-2 2 1 2-4z" fill="#E7DFDD"/>
<path transform="translate(939,727)" d="m0 0 7 1 16-1v2l-11 3h-12l-4 2-2-2 1-2 5-1z" fill="#E5D8D8"/>
<path transform="translate(1065,207)" d="m0 0 6 4 6 2 4 1v2h-3l-1 3-1-3h-2l5 13-3 1-4-2 2-4-4-9-2-2-3-4z" fill="#CAD6D3"/>
<path transform="translate(935,759)" d="m0 0 1 2 5 1-2 4-5 4-1 5-3 1h-8v-1l7-1 1-2 1-7 2-3h2z" fill="#D9B8BB"/>
<path transform="translate(985,723)" d="m0 0m-2 1h2l-2 4-4 5h-2l-2 6-6 9-3 4 1-7 4-8 9-11z" fill="#AF8C90"/>
<path transform="translate(1331,245)" d="m0 0 6 3-1 7-4 4-6-1 2-4z" fill="#37ACA7"/>
<path transform="translate(930,775)" d="m0 0h14l3 2-2 1 5 2h13l1-2h3v2h-2v2h-16l-6-2-18-2 1-2z" fill="#B9AEAC"/>
<path transform="translate(1060,269)" d="m0 0h6l-2 2 4 3 4 1 2 1 7-3h3l2 2-9 3-5 1 1 5h-4v-6l-4-3-5-2z" fill="#D5D6D3"/>
<path transform="translate(1122,234)" d="m0 0 6 3-1 3 3 2-4 2v-2h-7l-2 5-4 1 5-10v-3z" fill="#7ACDCA"/>
<path transform="translate(1121,102)" d="m0 0h1l-1 12-3 15-1 4h-3v-7h2l2-16z" fill="#E9E3E1"/>
<path transform="translate(900,780)" d="m0 0 2 1-2 4-10 6-13 6-3-1 8-6 14-6z" fill="#61807D"/>
<path transform="translate(1340,505)" d="m0 0 2 2 1 3v8l-3 5-6 5-2-1 5-10z" fill="#D2B2B4"/>
<path transform="translate(1177,197)" d="m0 0v3l-9 7 1 4-15 11-2-1 5-5h2l-1-4h4l1-3h3l1-4 5-5z" fill="#BDD2D0"/>
<path transform="translate(1014,159)" d="m0 0 4 2 3 5 4 4 7 8 15 15-1 2-6-5-7-8-17-17z" fill="#ECE5E4"/>
<path transform="translate(1026)" d="m0 0h11l-1 4-7 3-2-1-11-1 1-3 9-1z" fill="#37ACA7"/>
<path transform="translate(965,337)" d="m0 0 4 1 2 4-3 3-9 7-3 3h-2l2-4 7-9h2l-1-4z" fill="#DBDEDC"/>
<path transform="translate(1286,333)" d="m0 0 4 2-2 1 2 5-1 2h4l2-2 1 4-4 3-3 4-3 6h-2l3-9 2-5h-5v-3h3z" fill="#70CCC9"/>
<path transform="translate(1057,262)" d="m0 0 2 4-3 2-35 1v-2l6-1 26-1z" fill="#B9D4D0"/>
<path transform="translate(1134,212)" d="m0 0 6 1-4 4 4 1v2l-8-1-2 4-1 4 1 3h-9v-4l5-1 7-10z" fill="#AFD2CF"/>
<path transform="translate(1029,753)" d="m0 0 2 1-3 6-2 6-2 3h-2l2-5 1-2-7 3-2 1-2-1 1-5 6 1 2-4 5-2z" fill="#BEA1A2"/>
<path transform="translate(1131,186)" d="m0 0 3 2v2l4 1 1-4 2 5 3 1v4l-8 1-1-3-4-2-1-6z" fill="#C2D2CE"/>
<path transform="translate(1072,1071)" d="m0 0 1 2-3 5-10 8-4 4-1-4 9-10 5-2z" fill="#C7E0DE"/>
<path transform="translate(933,810)" d="m0 0 22 3 14 2v2l-16-1-18-3-2-1z" fill="#CFE0DD"/>
<path transform="translate(929,355)" d="m0 0 4 1-9 6h-3v2l-6 3-6 4-4-2 11-7h4v-2z" fill="#D5DCDA"/>
<path transform="translate(44,1130)" d="m0 0 4 2 1 5-1 2-4 1-6-2 1-5z" fill="#1E9E98"/>
<path transform="translate(1268,444)" d="m0 0 1 2-1 37 2 1-5 1v-16l1-4v-15z" fill="#557773"/>
<path transform="translate(1057,232)" d="m0 0 2 1-1 2-2 1-3 1 1 3-3 1 2 3h4v2h-6l-4-4-4-1 1-4 4 2h3v-2l-4-2v-2h2v2l3-2z" fill="#D2D6D3"/>
<path transform="translate(1061,1191)" d="m0 0h12l22 1v1h-12v2l-20-1-5-1z" fill="#2A817B"/>
<path transform="translate(1006,705)" d="m0 0 3 4 1 5 8 2 4 4-4 1-3-3v-2h-17l-1-2 2-1h9l-2-5z" fill="#E7DADB"/>
<path transform="translate(1208,677)" d="m0 0 3 1-6 6v10l-4 3h-2l2-14z" fill="#E5D6D6"/>
<path transform="translate(1196,238)" d="m0 0 1 2-1 3 5-2 1 4-3 3-2-1v-1l-8 6-3-1 1-3 3-3z" fill="#82CAC6"/>
<path transform="translate(1069,231)" d="m0 0 2 1v3l-5 5-3 7-5-1-1-4 4-1-2-2v-3l5 1 3-5z" fill="#E3D4D2"/>
<path transform="translate(1182,174)" d="m0 0h6l4 4 2 4-4 1-4 4h-2l-1-4h3l-1-5-3-1z" fill="#71CBC8"/>
<path transform="translate(1076,267)" d="m0 0 6 1-2 7-7 2-3-2-3-1v-3l9-2z" fill="#B5D4D0"/>
<path transform="translate(1237,171)" d="m0 0h2l-2 4-8 4-5 4h-3v2l-7 2 3-5 8-5 6-2 2-3z" fill="#BCD0CD"/>
<path transform="translate(1432,68)" d="m0 0h7l3 4v5l-2 2h-4l-2-3v-7z" fill="#118F89"/>
<path transform="translate(1129,155)" d="m0 0h2v10l-2 5h-6l1-5 3-9z" fill="#C8D1CE"/>
<path transform="translate(1158,127)" d="m0 0h3l-1 6-7 15h-2l-2 4 1-7z" fill="#86CECB"/>
<path transform="translate(1096,190)" d="m0 0h3v2h4v10l-5 1-2-6z" fill="#9DD0CD"/>
<path transform="translate(1107,160)" d="m0 0h2l1 10v9l-2-2-4-1-1 3-1-1-2 3-2-4 3-3 4-1-3-5 3 1 2 2z" fill="#A6D2CD"/>
<path transform="translate(825,239)" d="m0 0h4l-2 4-10 8h-4l1-4z" fill="#CED7D5"/>
<path transform="translate(1193,192)" d="m0 0 2 1-1 4-3 3h-2l-1 3-6 2v-6l6-4z" fill="#69C3BF"/>
<path transform="translate(23,1133)" d="m0 0h5l5 5-2 2h-11l-1-4z" fill="#1E9E98"/>
<path transform="translate(1033,190)" d="m0 0 2 1 2 12 2 3-4 1-1-5-2-5-2 7-3-2 2-5 3-6z" fill="#C9D5D3"/>
<path transform="translate(1202,104)" d="m0 0 2 1-3 4 4 4-9 3-4 2v-8h3l1-2 5-3z" fill="#76C9C5"/>
<path transform="translate(897,709)" d="m0 0h5l2 2v-2l3 1-3 8-4-1-1 4-2-7-4-4z" fill="#DFCDCA"/>
<path transform="translate(1168,244)" d="m0 0 6 3-3 6h-7v-3l1-2h-3v-2z" fill="#37ACA7"/>
<path transform="translate(1180,207)" d="m0 0h1v7l-3 4-8 2-5 3-4-1 7-4 1-2 7-3z" fill="#EAE2E1"/>
<path transform="translate(913,1066)" d="m0 0 5 1-1 6-3 3-4-1-1-6 1-2z" fill="#1E9E98"/>
<path transform="translate(951,724)" d="m0 0 24 1-2 6-2-1 1-2-2 1h-8v-2h-14z" fill="#E1CACB"/>
<path transform="translate(984,687)" d="m0 0 3 1v2l4 2 1 1v7l-2-3-2-2-5-2-4-2-2 1v-4l7 1z" fill="#E5D7D8"/>
<path transform="translate(1067,266)" d="m0 0h7l3 3-3 2h-7v2l-4-2-3-2-1 2v-3z" fill="#B0D4CF"/>
<path transform="translate(1207,166)" d="m0 0 2 1-2 7 7-2v2l-5 3-10 1v-5l2 1 2-1 2-5z" fill="#70CCC9"/>
<path transform="translate(965,745)" d="m0 0 1 3-3 6v13h-4v-13l2-6 4-1z" fill="#E2CCCE"/>
<path transform="translate(1015,725)" d="m0 0 9 3 5 4 1 5-6-5-4-1 6 6-1 2-9-8-2-2 2-1z" fill="#BDA1A1"/>
<path transform="translate(1029,213)" d="m0 0h1v21l-2 2-1-7-2-1 2-11z" fill="#D7DCDA"/>
<path transform="translate(1285,201)" d="m0 0 4 1 2 4v5l-5 1-4-3v-3h2z" fill="#37ACA7"/>
<path transform="translate(977,294)" d="m0 0h6v2l-14 4-7 3h-3l-1-3 16-5z" fill="#E1DFDD"/>
<path transform="translate(894,756)" d="m0 0 3 3-2 2 1 5 5 6-9-1-1-9z" fill="#E0D6D5"/>
<path transform="translate(995,755)" d="m0 0 3 3-1 3h2v2h2l-1 5-3 1-1-4-8-4v-1l5-1z" fill="#E5D7D7"/>
<path transform="translate(1282,376)" d="m0 0 6 2 6 4 3 1v2l5 2 1 3-5-1-16-11z" fill="#81CECA"/>
<path transform="translate(1288,336)" d="m0 0 8 1 2 1 5-1-2 3h-4l1 7-2-2-1-3-4 3v-2h-2z" fill="#CAD1CD"/>
<path transform="translate(1091,148)" d="m0 0 4 1v14h-1l-2 6-4-2 1-5 1-2h3l-1-8z" fill="#D8DAD7"/>
<path transform="translate(1201,128)" d="m0 0 3 1-4 7-5 5-3 4h-2l1-4h2v-5l6-7z" fill="#C0D3D0"/>
<path transform="translate(1218,373)" d="m0 0 15 5 6 1v3l-8-1-14-4z" fill="#6DC9C6"/>
<path transform="translate(1125,263)" d="m0 0v3l-3 5h-9v-4l4-3z" fill="#ECE1E1"/>
<path transform="translate(1175,245)" d="m0 0 11 4v3 1l-10 1-3-8z" fill="#70CCC9"/>
<path transform="translate(1172,205)" d="m0 0h5v2l-3 1-1 5-6 4-4-1 5-5 1-4z" fill="#44B1AC"/>
<path transform="translate(1294,1131)" d="m0 0 39 1v1l-27 1-15 1v-3z" fill="#1E9E98"/>
<path transform="translate(1107,902)" d="m0 0 10 2 16 5v1h-7l-17-4z" fill="#E7DADC"/>
<path transform="translate(1280,489)" d="m0 0h2l-1 4-5 5-4 8-4-2 2-5z" fill="#BCA0A0"/>
<path transform="translate(1138,332)" d="m0 0h2l2 7v4l2 1v4 5l-4-2v-2h-2l1-11z" fill="#B6D4CF"/>
<path transform="translate(1061,227)" d="m0 0 2 2h-2zm7 1 1 4h-2l-1 4-3 2-6-5-2-1 4-3h2v2l6-1z" fill="#B9D5D0"/>
<path transform="translate(933,348)" d="m0 0h3v2l-10 5h-2v2l-5 1v2l-8 1 3-3z" fill="#D5DEDB"/>
<path transform="translate(985,725)" d="m0 0v3l-3 5-4 6-2 7-4 3 3-12 2-4h2l2-4z" fill="#DDC7C8"/>
<path transform="translate(896,732)" d="m0 0h6l3 3 1 8-5-3-5-4-1-3z" fill="#BCA0A0"/>
<path transform="translate(1224,323)" d="m0 0v3l-3 1-1 4 4 5h-4l-3-3h-7l1-5 1 3 4-1 2-3h2l1-3z" fill="#70CCC9"/>
<path transform="translate(1136,257)" d="m0 0h10l3 3-1 1h-18l-1-2z" fill="#70CCC9"/>
<path transform="translate(1220,224)" d="m0 0 7 1-3 3h-6v2l-9 1 1-3z" fill="#78CDC9"/>
<path transform="translate(1236,187)" d="m0 0 1 2-1 3-8 4-5 2h-3l2-4z" fill="#ADCDCA"/>
<path transform="translate(1082,149)" d="m0 0 2 1 5 24 1 6-2-1-6-21z" fill="#DDDCDA"/>
<path transform="translate(887,747)" d="m0 0h5l-2 1 2 6h-4l-2 6-3-1-1 2-1-7 1 3h2l1-6z" fill="#E1D5D4"/>
<path transform="translate(1150,536)" d="m0 0h2l2 12-3 1-3-3 1 3-3-1v-3l2-2-1-4z" fill="#F5EDEC"/>
<path transform="translate(1116,346)" d="m0 0 7 1v2l-6 1-1 3-7-1-1-5z" fill="#D4DAD8"/>
<path transform="translate(1098,210)" d="m0 0 2 2 2-2 2 10 2 2-1 2-6-1-1-4z" fill="#D4D6D2"/>
<path transform="translate(1560,617)" d="m0 0 5 1-2 5-2-1 1 6h-4l-3-9z" fill="#118F89"/>
<path transform="translate(1105,273)" d="m0 0 5 1-1 3h3v10l-2 4-4-13z" fill="#B1CCC8"/>
<path transform="translate(1140,119)" d="m0 0h2v9l-3 11h-2l-1 2 3-21z" fill="#B2D2CF"/>
<path transform="translate(989,737)" d="m0 0h1v5l2 1-6 2 1 10-5-4 1-7 3-4h2z" fill="#CDADAF"/>
<path transform="translate(1217,364)" d="m0 0h6l-4 2v2h-2l-1 2h-6l-11 6-4-1 19-9z" fill="#70CCC9"/>
<path transform="translate(1170,337)" d="m0 0 5 5 2 3h-2l1 7-10-10 1-2h3z" fill="#6FC8C5"/>
<path transform="translate(1120,257)" d="m0 0h6l-1 4-4 4-5-2-3-3z" fill="#A4D2CE"/>
<path transform="translate(1300,781)" d="m0 0h12v1l-25 3h-9l2-3z" fill="#DDC1C2"/>
<path transform="translate(1253,517)" d="m0 0 2 1v5l3-1 2-4 1 4-2 4-4 3-7-1 5-4-1-6z" fill="#BEA2A2"/>
<path transform="translate(1334,491)" d="m0 0 3 3 1 5h-2v15h-2l-1-22z" fill="#BCA0A0"/>
<path transform="translate(1108,296)" d="m0 0 3 4 4 8-1 7-2-1v-7h-2v-2l-3-1-1-4z" fill="#6A8B89"/>
<path transform="translate(1124,248)" d="m0 0m-6 1h6v2h2v3l3 1-11 1-2-6z" fill="#9CD1CD"/>
<path transform="translate(1160,230)" d="m0 0h3l-1 4-17 7-3-1 8-4h2v-2z" fill="#E6E0DF"/>
<path transform="translate(1295,331)" d="m0 0 3 2 4-2 3 1-1 1h5v4h-3l1 3h-3l1-5-4 1v-2l-5 2v-2h-2v3l-4-1h3v-3h2z" fill="#72CBC8"/>
<path transform="translate(1033,219)" d="m0 0 3 1 2 5 5 3v2l3 1h-4l-2-2v6l-3-4-2-6h-2z" fill="#CFD5D2"/>
<path transform="translate(1184,206)" d="m0 0 6 2 3 3-4 3h-7l1-7z" fill="#71CBC8"/>
<path transform="translate(1101,206)" d="m0 0 1 4-2 3-1-1v14h-2l-2-16h2l1-2z" fill="#70CCC9"/>
<path transform="translate(1e3 700)" d="m0 0 2 3 2 9-1 1h-7z" fill="#B99B9C"/>
<path transform="translate(1138,273)" d="m0 0 5 1 1 2 8 3-4 2-11-4-5-1 3-2z" fill="#AAD1CD"/>
<path transform="translate(1174,248)" d="m0 0 2 2v4l8-1-2 2 1 2-4 1-3-1h-3v-2h-5z" fill="#76CCC9"/>
<path transform="translate(1172,171)" d="m0 0 2 4-8 8-1 2h-5l3-5 8-7z" fill="#9ACBC6"/>
<path transform="translate(1377,856)" d="m0 0 5 1 1 5-3 2h-5l1-7z" fill="#118F89"/>
<path transform="translate(1364,774)" d="m0 0 4 1-22 5h-6v-2l2-1z" fill="#B3B2AE"/>
<path transform="translate(898,370)" d="m0 0 2 1-4 4-13 8-3-1 4-4 5-1v-2l4-2h3v-2z" fill="#7ACDCA"/>
<path transform="translate(1203,287)" d="m0 0 4 1 1 7-2 3-3-3-6-2 1-3 5 1z" fill="#80CDC9"/>
<path transform="translate(1194,275)" d="m0 0h10l-1 16-5-1-4-4 7 1 1-9h-4v-2z" fill="#CDD6D2"/>
<path transform="translate(1166,258)" d="m0 0h9l-1 4h-18l-1-2 6-1z" fill="#A3CCC8"/>
<path transform="translate(942,695)" d="m0 0h5v2l2 1-3 2h-7l-8-1 2-2z" fill="#E7DADC"/>
<path transform="translate(1323,451)" d="m0 0 3 1-8 8-4 2-4-3h3v-2l7-4z" fill="#327772"/>
<path transform="translate(1132,116)" d="m0 0h2l-5 25h-2l-1 3 1-9z" fill="#EFE4E4"/>
<path transform="translate(939,714)" d="m0 0 16 2 2 2-4 2v-1l-16-1z" fill="#E5D5D7"/>
<path transform="translate(1100,223)" d="m0 0 10 2v6l-2 1-1-4-7 2z" fill="#8CCFCB"/>
<path transform="translate(1083,185)" d="m0 0h3l1 8 1 3v8l-2-1-2-6v-7h-3z" fill="#E9E5E4"/>
<path transform="translate(1326,488)" d="m0 0 3 3 3 5 1 4v7l-3-4-3-8z" fill="#BCA0A0"/>
<path transform="translate(1027,246)" d="m0 0v3l-6 7-3 5h8v1h-12l2-1 2-5 5-9z" fill="#CAD8D5"/>
<path transform="translate(1050,252)" d="m0 0h10l9 4v2l2 1-8-1-4-3-7-1z" fill="#9CD1CD"/>
<path transform="translate(1083,216)" d="m0 0 5 1 2 5-2 2 1 3-4-2v-2l-3-1-1-4h2z" fill="#B5D4D0"/>
<path transform="translate(1334,194)" d="m0 0 3 1-11 8-6 4h-3l2-4 14-8z" fill="#88C9C5"/>
<path transform="translate(1332,778)" d="m0 0h8v2l-15 2-10-1v-1z" fill="#B1BCB6"/>
<path transform="translate(995,716)" d="m0 0h20l1 3h-7l-5 1-9-3z" fill="#E1D2CE"/>
<path transform="translate(1298,477)" d="m0 0h3l-2 5-5 5h-2l-1-5z" fill="#D7B6B8"/>
<path transform="translate(1171,381)" d="m0 0h11l4 1v2l-6 1h-9z" fill="#F5EDEC"/>
<path transform="translate(1229,309)" d="m0 0h1v7l-4 3h-3l-3-6 8-1z" fill="#88CDCA"/>
<path transform="translate(1171,254)" d="m0 0 3 1-1 2 7-1-1 3h-15l-6-2 4-2 9 1z" fill="#BAD3CF"/>
<path transform="translate(1041,209)" d="m0 0 2 1v2l4 2 5 2 1 2-5-1-4-2-7-1-1 3-4-3 1-2h7z" fill="#B5D4D0"/>
<path transform="translate(1155,197)" d="m0 0 2 1-4 6h-5l-1 5-3-3 2-5 6-1z" fill="#38ACA7"/>
<path transform="translate(1174,73)" d="m0 0 1 3-3 10-3 4h-2l1-8h2l2-6z" fill="#F0E5E4"/>
<path transform="translate(1332)" d="m0 0h6l-3 7-5 5-4 3 2-4 4-2z" fill="#AAC5C3"/>
<path transform="translate(1231,644)" d="m0 0h5l1 7-6 2-1-5z" fill="#B8A7A5"/>
<path transform="translate(1141,269)" d="m0 0h5v2h-2v2l-12 3-4 2h-4v-2l15-5h2z" fill="#E4E0DE"/>
<path transform="translate(1129,263)" d="m0 0h6l5 2-4 4-10-2 1-2h2z" fill="#B4D4CF"/>
<path transform="translate(1271,182)" d="m0 0h5l3 3-4 4-4 2-1-7z" fill="#33AAA5"/>
<path transform="translate(914,144)" d="m0 0h5l-1 10-1-3-6 1 2-7z" fill="#CBD2CE"/>
<path transform="translate(1339)" d="m0 0h5l-1 2 3 2-1 1h-5l-2 5-2 4-3-2 3-3z" fill="#A9C4C1"/>
<path transform="translate(892,713)" d="m0 0h2l6 12-3 1-3-4-4-2h2z" fill="#F5EDEC"/>
<path transform="translate(1052,272)" d="m0 0 3 2 3 7 5 2v1l-7 1-5-8-1-4z" fill="#B9D6D2"/>
<path transform="translate(1272,169)" d="m0 0h4l-1 3-10 5-4-1 3-3z" fill="#C2D1CE"/>
<path transform="translate(835,104)" d="m0 0h2l1 3-1 2h4l-2 4-2 2v-5l-3 1-5-2 1-2z" fill="#B7D5D0"/>
<path transform="translate(968,774)" d="m0 0 4 2 1 5-2 1h-6v-2h2v-2l-2-1z" fill="#AA8E91"/>
<path transform="translate(1177,285)" d="m0 0 7 3-3 1v2l2 1h-4l-1 3h-2l-2 1 1-7z" fill="#C5D5D1"/>
<path transform="translate(1012,262)" d="m0 0h2v2l4 1 5 11-1 3-6-11v-2l-4 3v-4l-2-1z" fill="#D1DAD7"/>
<path transform="translate(1198,244)" d="m0 0v3l-5 4-3 3-9 2 4-4-1-2 5 1z" fill="#DED8D7"/>
<path transform="translate(1129,207)" d="m0 0 4 1-2 4h-2l-2 5 2 1-4 1-2-1-1 2-1-3 3-1 3-5z" fill="#C3D4D0"/>
<path transform="translate(1181,200)" d="m0 0h1v6l2 1-2 7h-1l-1-6-3 5h-3l4-6v-6z" fill="#D1CFCB"/>
<path transform="translate(807,92)" d="m0 0 3 1v2l4 2 9 5v2l-6-1v-2l-8-4v-2h-2z" fill="#E0DFDE"/>
<path transform="translate(1e3 732)" d="m0 0 4 4h-2l-1 5h5v2l-7-1-2-1h-5l3-1v-2l6-1z" fill="#BEA1A1"/>
<path transform="translate(978,693)" d="m0 0 6 4v3l-8 2 1-7z" fill="#BCA0A0"/>
<path transform="translate(1125,352)" d="m0 0h2l4 8 4 10-1 4-5-11-4-9z" fill="#B4B0AC"/>
<path transform="translate(1124,334)" d="m0 0 2 3 3 6 2 6v5l-3-3-2-7-2-2z" fill="#8C5565"/>
<path transform="translate(1e3 326)" d="m0 0 4 1v3l-6 5 1-5-6 1-1 3 1-5z" fill="#D4DAD7"/>
<path transform="translate(1144,290)" d="m0 0 5 2 9 8 5 5-6-2-4-4h-2l-2-4-5-3z" fill="#C9D6D3"/>
<path transform="translate(1113,278)" d="m0 0h1l1 10 4 9h-3l-2-6-3 1 1-9z" fill="#EBE4E3"/>
<path transform="translate(1190,269)" d="m0 0h2v2l3-1 4 1v2h-2v2l-5 2-1 2-4-1h3z" fill="#BBD1CC"/>
<path transform="translate(1149,235)" d="m0 0 3 1-9 5-2 2h-6l4-3-4 1v-2l5-3 5 1z" fill="#D2D4D2"/>
<path transform="translate(1107,210)" d="m0 0h2l1 4-1 5-3 3-3-2 1-6h3z" fill="#A5D2CE"/>
<path transform="translate(881,384)" d="m0 0 3 1-3 1v2l-10 5h-2v2l-4-1 8-5 3-3z" fill="#E8E4E3"/>
<path transform="translate(1117,306)" d="m0 0 10 10-1 4-7-6-2-4z" fill="#E9E0DF"/>
<path transform="translate(944,299)" d="m0 0 3 2v2l7-4h2v2l2 1-14 4h-3l-1 2v-4h5z" fill="#CCD8D6"/>
<path transform="translate(1115,283)" d="m0 0 5 1 4 4-1 3-4-1-5-4z" fill="#D8D7D5"/>
<path transform="translate(1133,243)" d="m0 0 5 1-1 2-5 1-2-1-1 4 3 1v2l-5-2h-3v-4l5-2h4z" fill="#C2D4D0"/>
<path transform="translate(891,233)" d="m0 0h5l-2 4-5 4h-3l1-4z" fill="#E8E2E0"/>
<path transform="translate(1177,202)" d="m0 0h2l-1 7-5 7-4-1 4-3 1-5h3v-2l-3-1z" fill="#7CCBC8"/>
<path transform="translate(959,708)" d="m0 0 2 1-4 4-12 2h-5l2-2z" fill="#F3EAE9"/>
<path transform="translate(1146,552)" d="m0 0h7l6 2-1 2h-12v-2l-3-1z" fill="#E1CFCC"/>
<path transform="translate(1073,280)" d="m0 0 7 1-2 6h-5l-2-3h2z" fill="#ABD3CE"/>
<path transform="translate(1154,263)" d="m0 0 4 1 1 4h6l2 2h-6l-3 1v-2l-5 1v-2l3-3h-2z" fill="#A9D2CE"/>
<path transform="translate(1331,248)" d="m0 0 5 1-2 5-6 4h-2l2-4z" fill="#71C9C6"/>
<path transform="translate(1184,158)" d="m0 0 5 1-5 5-4 2-3-1 4-6z" fill="#81CDCA"/>
<path transform="translate(1441,5)" d="m0 0 4 2-2 6h-4l-1-5z" fill="#118F89"/>
<path transform="translate(1114,889)" d="m0 0 1 3-1 4-4 2-2-1 1-5z" fill="#DFE7E6"/>
<path transform="translate(962,685)" d="m0 0 9 3 2 2-1 3-1-2-4-1-1 5-2-2v-4l-1 2h-2z" fill="#E5D8D9"/>
<path transform="translate(1293,492)" d="m0 0 1 3h2l4 4-1 9-2-4-4-6z" fill="#BCA0A0"/>
<path transform="translate(1171,274)" d="m0 0h7l4 2h-2v3l-7-1-4-2z" fill="#37ACA7"/>
<path transform="translate(1134,212)" d="m0 0 6 1-4 4 4 1v2l-8-1v2h-2l2-5z" fill="#C7D6D3"/>
<path transform="translate(1116,196)" d="m0 0h1v7l-3 9h-2l1-9-1-3 1-2h3z" fill="#F5EDEC"/>
<path transform="translate(1186,188)" d="m0 0 4 1-2 5-6 2-1-5z" fill="#74CBC8"/>
<path transform="translate(1138,151)" d="m0 0h3l-2 6-7 16-1-4 5-11z" fill="#EAE3E2"/>
<path transform="translate(1103,113)" d="m0 0h1l1 11v13l-2 3-1-5z" fill="#CED4D1"/>
<path transform="translate(1121,102)" d="m0 0h1l-1 12-1 6-3-1 1-9z" fill="#D7D3D0"/>
<path transform="translate(914,773)" d="m0 0 5 1 7 2-1 2-5 1-9-3z" fill="#5F7D79"/>
<path transform="translate(996,744)" d="m0 0h3l1 3-4 4-1 3h-3l2-9z" fill="#8C5263"/>
<path transform="translate(1318,555)" d="m0 0 9 3 5 5v2l-5-2-9-6z" fill="#167C75"/>
<path transform="translate(1248,554)" d="m0 0 16 1v1l-9 3-7-2z" fill="#E0D0CC"/>
<path transform="translate(995,334)" d="m0 0v3l-5 6v3l-5 5-1-4 8-10z" fill="#B5D5D0"/>
<path transform="translate(1025,266)" d="m0 0 23 1v1l-16 1h-11v-2z" fill="#D9DDDB"/>
<path transform="translate(1090,238)" d="m0 0 2 3v4l-6 1-3-3 2-1v-2h5z" fill="#DAB9BB"/>
<path transform="translate(1015,191)" d="m0 0h6l3 4v2l-4-1-1 3-4-5z" fill="#CED5D2"/>
<path transform="translate(1182,186)" d="m0 0 2 1-1 4h-2l2 6h-2l-1-2-2 2-2-5 4-4h2z" fill="#B8D0CE"/>
<path transform="translate(1093,140)" d="m0 0 4 4 3 11-1 3-4-10h-5l2-2z" fill="#BCD4CF"/>
<path transform="translate(949,776)" d="m0 0 8 4v1h-7l-5-2-7-1v-1z" fill="#745E68"/>
<path transform="translate(1e3 761)" d="m0 0 7 2v3l-5 2-4-2z" fill="#BCA0A0"/>
<path transform="translate(1024,720)" d="m0 0 8 4 3 5-1 4-3-5-8-6z" fill="#E5D7D8"/>
<path transform="translate(891,377)" d="m0 0 2 1v2h-2v2l-7 3-6 1 2-3z" fill="#D6DDDB"/>
<path transform="translate(884,376)" d="m0 0v3l-11 6-2-1 5-5z" fill="#E6E2E1"/>
<path transform="translate(1145,250)" d="m0 0 14 1v2l-5 2-3 1-3-3h-3z" fill="#BDD4D0"/>
<path transform="translate(1174,173)" d="m0 0h2l-1 5-9 8-1-3 8-8z" fill="#D6DEDC"/>
<path transform="translate(1108,153)" d="m0 0h1l1 7-2 1v10l-2-4-2-7 2-4h2z" fill="#BCD5D1"/>
<path transform="translate(999,725)" d="m0 0h5l-4 2-2 5-5 2 1-7z" fill="#BCA0A0"/>
<path transform="translate(1131,718)" d="m0 0h1v13l-1 2h-2v-11z" fill="#DDC0C2"/>
<path transform="translate(1237,352)" d="m0 0 2 1-8 5-2 1v3h-3v-3l-2-1z" fill="#70CCC9"/>
<path transform="translate(1123,338)" d="m0 0 2 4 3 3v9l-1-2h-2l-1-7-2-5z" fill="#AE9D9D"/>
<path transform="translate(1197,170)" d="m0 0h2l-2 10-4-1 1-2-2-6 5 1z" fill="#6ECBC8"/>
<path transform="translate(1095,162)" d="m0 0 2 2v11l1 13-3-1-1-3h2l-2-21z" fill="#B6D4CF"/>
<path transform="translate(1170,73)" d="m0 0h2l-2 9h-2l-1 8 2 1-4-1-1-8 3-1z" fill="#85C9C5"/>
<path transform="translate(933,810)" d="m0 0 14 2 3 1v2l-10-1-7-2z" fill="#D2E1DF"/>
<path transform="translate(970,728)" d="m0 0h2l-2 4-7 5-2-1 3-5 3-2z" fill="#8C5263"/>
<path transform="translate(892,727)" d="m0 0h11l1 2-8 2-4 2-1-3z" fill="#DCBABD"/>
<path transform="translate(942,718)" d="m0 0h12l-1 3-3 1-1 2h-2v-2h-2v-3z" fill="#BDA1A1"/>
<path transform="translate(1353,527)" d="m0 0h1v6l-1 2-6 3v-4l4-5h2z" fill="#6F918F"/>
<path transform="translate(1016,285)" d="m0 0 5 2 4 3-1 2 4 2 2-1v4h-5l-4-7z" fill="#C8D8D4"/>
<path transform="translate(1506,293)" d="m0 0 3 1 1 3-1 2h-2l-1 2-4-4 1-3z" fill="#118F89"/>
<path transform="translate(1074,262)" d="m0 0h6l3 3-1 2h-8l-3-2h3z" fill="#E1D8D8"/>
<path transform="translate(1135,254)" d="m0 0 10 1 3 3h-12l-4 1-1-3z" fill="#B3D4CF"/>
<path transform="translate(1261,178)" d="m0 0h1v6l-3 1-6-2 1-2h3v-2z" fill="#3DAEA9"/>
<path transform="translate(1118,148)" d="m0 0 4 2 2-1-1 7h2l-1 6-1-3h-2v-5l-4-5z" fill="#D1D4D1"/>
<path transform="translate(1286,668)" d="m0 0 2 2 1 8v9l-2 1-1-6v-9l-1-3z" fill="#719391"/>
<path transform="translate(1236,644)" d="m0 0 4 1 6 3-1 2-5-1v2l-3 1z" fill="#C0B8B5"/>
<path transform="translate(1335,498)" d="m0 0 3 3v11l-2 5-1-3z" fill="#DAB8BB"/>
<path transform="translate(1072,220)" d="m0 0 2 1 1 5-2 1-2-1-1 3-4-4v-2l5-2z" fill="#98D1CD"/>
<path transform="translate(961,770)" d="m0 0m-1 1m-1 1m-2 1 2 1-3 3v3l-7-3-5-1v-1l11-1z" fill="#808B89"/>
<path transform="translate(1027,727)" d="m0 0 3 3 3 8v7l-2-1-3-12z" fill="#E1CECE"/>
<path transform="translate(1313,675)" d="m0 0 4 1 1 3-3 5-1 5h-1z" fill="#32A9A4"/>
<path transform="translate(1282,475)" d="m0 0 2 3 1 13-2-2-3-8 1-5z" fill="#BCA0A0"/>
<path transform="translate(1105,270)" d="m0 0 9 4-1 9h-1v-6h-3v-2l-4-2z" fill="#E2D5D4"/>
<path transform="translate(1082,272)" d="m0 0 4 3-9 3-5 1 1 5h-2v-6l10-5z" fill="#EBDFE0"/>
<path transform="translate(1081,240)" d="m0 0 3 3v2h6v6h-3v-2l-3-1-3-5z" fill="#E2D3D1"/>
<path transform="translate(1076,184)" d="m0 0 7 1-1 4-1 1h3l-1 2-3 2-3-1 2-7z" fill="#C4D3CE"/>
<path transform="translate(1047,1104)" d="m0 0 2 3-2 7-5 2 2-6z" fill="#B3DBD8"/>
<path transform="translate(1184,918)" d="m0 0h1l-1 7-3 5h-2l-1-4 5-6z" fill="#70CCC9"/>
<path transform="translate(1e3 746)" d="m0 0 4 1 1 5h-6l-2-1 2-4z" fill="#E1CECF"/>
<path transform="translate(928,700)" d="m0 0 2 1-8 7-3 3-4-2 3-2 4-2z" fill="#E6D9DB"/>
<path transform="translate(973,693)" d="m0 0 1 2h3l-1 7 1 2-4 1z" fill="#E5D5D7"/>
<path transform="translate(934,686)" d="m0 0h20v1l-16 1v2l-5-1-2-2z" fill="#E2DFDF"/>
<path transform="translate(1211,561)" d="m0 0 2 1-2 7-9 2 1-2 5-1 1-5z" fill="#B1B8B2"/>
<path transform="translate(1119,334)" d="m0 0 4 4 1 6 1 4-1 3-1-4-2-1-2-8z" fill="#B3BAB5"/>
<path transform="translate(1059,257)" d="m0 0 14 1 3 3-4 1-13-3z" fill="#DED7D5"/>
<path transform="translate(1110,252)" d="m0 0 7 2-3 1-1 4-3 1-2-6z" fill="#B5D5D0"/>
<path transform="translate(1057,232)" d="m0 0 2 1-1 2-2 1-3 2-5-2-1-3h2v2l3-2z" fill="#DED7D5"/>
<path transform="translate(1136,230)" d="m0 0h2v2l6-2-4 4-7 2h-2l1-3z" fill="#9FCBC7"/>
<path transform="translate(1041,219)" d="m0 0 5 2 10 3-4 2-1-2h-10l-1-4z" fill="#C9D6D3"/>
<path transform="translate(1117,215)" d="m0 0 1 3-1 2 5 1-2 4-3 1-2-5-1-4z" fill="#BFD4CF"/>
<path transform="translate(1116,174)" d="m0 0 1 4-2 3h-2l-2 6-1-3 1-7h2z" fill="#E1DCDA"/>
<path transform="translate(1316,24)" d="m0 0v3l-8 9-2 3 1 2h-3l1-5 9-10z" fill="#A0C1BD"/>
<path transform="translate(854,1086)" d="m0 0h6l2 1-1 3h-8v-3z" fill="#1E9E98"/>
<path transform="translate(921,778)" d="m0 0 3 1-3 2-3 15h-1v-13z" fill="#B4D1CC"/>
<path transform="translate(1293,518)" d="m0 0h1l3 10 2 7-5-5-1-3z" fill="#BCA0A0"/>
<path transform="translate(872,388)" d="m0 0 2 1-8 5v2h-2v2l-3-1-4 1 3-3z" fill="#D2D8D6"/>
<path transform="translate(1170,348)" d="m0 0 5 3 5 5-3 1-3-2v-2l-5-1z" fill="#82CECA"/>
<path transform="translate(1093,272)" d="m0 0 1 2h3l-1 10h-2v-9h-6l1-2z" fill="#B2D4CF"/>
<path transform="translate(1129,235)" d="m0 0 5 2 2 3 6-2-3 3-6 2-4-6z" fill="#F6EEED"/>
<path transform="translate(1069,231)" d="m0 0 2 1v3l-5 5-5-2 1-2h3l2-4z" fill="#E1D1CD"/>
<path transform="translate(1113,226)" d="m0 0 7 1-1 7h-3z" fill="#F4ECEB"/>
<path transform="translate(1019,216)" d="m0 0 1 3 2 1-7 6-2-1 4-7z" fill="#C6D5D1"/>
<path transform="translate(1152,218)" d="m0 0 1 4-2 2-5-1-3 4-3-1 6-6 5-1z" fill="#A0CECB"/>
<path transform="translate(1097,203)" d="m0 0 1 3 3 1h-2l-1 2-3 1v5l-3-2-2-1 6-6z" fill="#C2D6D2"/>
<path transform="translate(1033,205)" d="m0 0 7 1 1 7h-8l4-1v-4l-4-1z" fill="#E2D4D3"/>
<path transform="translate(1269,194)" d="m0 0h2l1 3-2 5h-3l-1-5 3-1z" fill="#37ACA7"/>
<path transform="translate(1113,184)" d="m0 0h1l1 5 1 2-3 6h-2l1-9z" fill="#BCD3D0"/>
<path transform="translate(1114,181)" d="m0 0h3l2 2v3l-2 4h-3z" fill="#ADD1CC"/>
<path transform="translate(958,729)" d="m0 0h9v1l-11 3h-6l1-2z" fill="#DABCBD"/>
<path transform="translate(1250,568)" d="m0 0 2 1-1 4-13 3v-2l10-3z" fill="#DCBABD"/>
<path transform="translate(966,298)" d="m0 0h5l-3 3-9 2-1-3z" fill="#E5E2E0"/>
<path transform="translate(1064,288)" d="m0 0 6 1 2-1v4l-5 3-2 1 1-4-4-2h2z" fill="#B9D5D0"/>
<path transform="translate(1129,270)" d="m0 0h6l4 2-12 4-2-1v-2h6v-2z" fill="#B5D3CE"/>
<path transform="translate(1131,230)" d="m0 0v3l-2 6-1-2-5-2-2 1-3-2 8-1 4-2z" fill="#B7D5D0"/>
<path transform="translate(1154,221)" d="m0 0h2l-1 4-9 5-2-1z" fill="#70CCC9"/>
<path transform="translate(1331)" d="m0 0h1l1 6-1 3h-2v-2l-6-1 1-2 3 1v-2h2z" fill="#38ADA8"/>
<path transform="translate(989,710)" d="m0 0 1 3-2 5h-2v2l-4 1 1-6 4 1z" fill="#D2B5B6"/>
<path transform="translate(1126,551)" d="m0 0 7 1-1 2-9 2-1-4z" fill="#E0CDCA"/>
<path transform="translate(1252,519)" d="m0 0 2 1-1 5-5 2-1-5 4-1z" fill="#8C5263"/>
<path transform="translate(1290,505)" d="m0 0 1 3-1 2 2 1-3 1-2 3-4-4 6-4z" fill="#BCA0A0"/>
<path transform="translate(915,359)" d="m0 0 2 1-12 7-2-1 4-4z" fill="#E4E3E2"/>
<path transform="translate(1288,336)" d="m0 0 8 1 2 1 5-1-2 3h-9l-4-2z" fill="#E9DCDC"/>
<path transform="translate(1070,266)" d="m0 0 6 1v3l-7 1z" fill="#70CCC9"/>
<path transform="translate(1057,250)" d="m0 0h7l1 3 4 1-1 2-6-2-5-1z" fill="#E9DDDD"/>
<path transform="translate(1175,248)" d="m0 0 6 2 3 3-8 1z" fill="#37ACA7"/>
<path transform="translate(1089,227)" d="m0 0 3 1-2 6-2 2 1 3h-3l-1-5 3-3z" fill="#DCDEDB"/>
<path transform="translate(1146,222)" d="m0 0 5 1-5 5-2 1-5-1 4-2z" fill="#D6D5D2"/>
<path transform="translate(1126,185)" d="m0 0h3l3 9-3-1v-3l-5 2z" fill="#88CECA"/>
<path transform="translate(1194,141)" d="m0 0 1 3-2 3-1 5 1 3h-5v-2h2v-8h2z" fill="#80C9C5"/>
<path transform="translate(1158,127)" d="m0 0h3l-1 6-2 4h-2l1-8z" fill="#90CECB"/>
<path transform="translate(847,120)" d="m0 0 5 2 6 3 1 3-9-3-3-3z" fill="#E1DFDE"/>
<path transform="translate(1458,61)" d="m0 0 4 1 2 1-1 5h-3l-2-3z" fill="#1E9E98"/>
<path transform="translate(1169,23)" d="m0 0 8 1 8 3v1l-8-1-7-2z" fill="#74CCC9"/>
<path transform="translate(1061,1191)" d="m0 0h12l-2 2-8 1-5-1z" fill="#1D8079"/>
<path transform="translate(1294,1131)" d="m0 0 12 1v1l-15 2v-3z" fill="#1D9D97"/>
<path transform="translate(1022,762)" d="m0 0h3l-2 5-2 1-5-1 3-4z" fill="#8C5263"/>
<path transform="translate(901,726)" d="m0 0h7l3 1v2l-2 1h-8l2-2z" fill="#F1E7E7"/>
<path transform="translate(921,714)" d="m0 0h2l-1 4-1 2 2 2-3 2-3-1 3-8z" fill="#EFE5E4"/>
<path transform="translate(1257,515)" d="m0 0h2l1 3-2 5h-3l-1-6z" fill="#8C5263"/>
<path transform="translate(1270,409)" d="m0 0 4 2 4 5-1 3-6-5z" fill="#37ACA7"/>
<path transform="translate(1137,335)" d="m0 0h1v8l-1 5h-2v-11h2z" fill="#F2EBEA"/>
<path transform="translate(1062,259)" d="m0 0 10 2v3h-5v-2l-4 1v-2l-2-1z" fill="#A4D2CE"/>
<path transform="translate(1159,239)" d="m0 0 5 2 1 2-7 1h-2v-4z" fill="#37ACA7"/>
<path transform="translate(1212,187)" d="m0 0 2 1-3 1-1 4-5 1h-3l6-6z" fill="#CDD1CF"/>
<path transform="translate(1237,171)" d="m0 0h2l-2 4-8 4h-2v-2l4-2 2-3z" fill="#D5D8D5"/>
<path transform="translate(1468,115)" d="m0 0h5v5l-4 1-2-1z" fill="#1E9E98"/>
<path transform="translate(1194,89)" d="m0 0 1 2-4 4v5l-6-5 4-1v-3l4-1z" fill="#76CCC9"/>
<path transform="translate(993,745)" d="m0 0 1 2-2 7h3l1-3v4h-6v-6z" fill="#C2A5A6"/>
<path transform="translate(1258,500)" d="m0 0v3l-11 6 2-4 4-3z" fill="#C0A3A4"/>
<path transform="translate(1178,377)" d="m0 0 4 2 1 2h-13v-2h8z" fill="#8ACFCB"/>
<path transform="translate(1280,352)" d="m0 0h2l-1 4-4 6h-2l2-6z" fill="#77CCC9"/>
<path transform="translate(1102,293)" d="m0 0h3l1 2v7l-3-1z" fill="#E0D9D7"/>
<path transform="translate(1158,212)" d="m0 0 4 2-2 4-6 4-2-1 5-5h2z" fill="#D1D3D1"/>
<path transform="translate(1113,202)" d="m0 0 1 4-2 4-1-5-1 3-1 4v-2h-2l2-7z" fill="#D6D4D2"/>
<path transform="translate(1118,200)" d="m0 0 2 2-4 13-2-3 2-9h2z" fill="#C1D4D0"/>
<path transform="translate(1137,193)" d="m0 0 6 1 1 3-8 1z" fill="#F2E9E8"/>
<path transform="translate(1094,188)" d="m0 0h8l-1 3-5-1v7l-2-1z" fill="#F4ECEB"/>
<path transform="translate(1190,137)" d="m0 0 4 2-3 3-2 4-3 1 2-8h2z" fill="#9DCBC8"/>
<path transform="translate(1025,16)" d="m0 0h4l1 4-3 3-3-2z" fill="#37ACA7"/>
<path transform="translate(1338)" d="m0 0 1 3-3 7-3 3h-2l2-4z" fill="#F3EBEA"/>
<path transform="translate(1127,705)" d="m0 0h6v2l-4 4-4-1z" fill="#E7DADC"/>
<path transform="translate(1140,311)" d="m0 0 4 2 4 4v2h2l-1 4-5-5-3-5z" fill="#90D0CC"/>
<path transform="translate(1120,315)" d="m0 0 5 3v7l-2 1z" fill="#74CBC8"/>
<path transform="translate(1112,291)" d="m0 0h2l2 3v3l4-1 1 3h-6l-3-5z" fill="#A4D1CE"/>
<path transform="translate(1114,286)" d="m0 0 7 5-2 5-2-1z" fill="#81CDCA"/>
<path transform="translate(1123,267)" d="m0 0 2 2 6 2v2h-7l-3-2z" fill="#E2D2D0"/>
<path transform="translate(1101,265)" d="m0 0 2 1 1 5 1 2h-6l1-7z" fill="#BCA0A0"/>
<path transform="translate(1122,197)" d="m0 0 1 3h2l-3 9-2 1 1-8v-4z" fill="#B2D4CF"/>
<path transform="translate(1242,184)" d="m0 0h4l-1 3-9 3 2-4z" fill="#CDCECC"/>
<path transform="translate(1249,163)" d="m0 0 4 1 1 7-4-1z" fill="#36ABA6"/>
<path transform="translate(1139,127)" d="m0 0h1v8l-1 4h-2l-1 2 1-7z" fill="#D5DCDA"/>
<path transform="translate(1202,71)" d="m0 0h2l-2 11h-3l-1-2z" fill="#70CCC9"/>
<path transform="translate(1107)" d="m0 0h3l-1 11h-2z" fill="#C3D3D2"/>
<path transform="translate(1113,841)" d="m0 0h2l2 5v3h-2l-1 2-1-1z" fill="#B1B8B2"/>
<path transform="translate(1149,823)" d="m0 0h13l-4 2-11 1-2-2z" fill="#B1B8B2"/>
<path transform="translate(1043,769)" d="m0 0 1 2-2 6-1 2-3-1 2-5 1-3z" fill="#BCA0A0"/>
<path transform="translate(969,725)" d="m0 0h6l-2 6-2-1 1-2-5 1z" fill="#D3B7B7"/>
<path transform="translate(931,715)" d="m0 0 3 1-1 3-9 2 3-4h4z" fill="#E9DBDC"/>
<path transform="translate(1246,550)" d="m0 0 6 1 2 3h-7l-3-1v-2z" fill="#D7B6B8"/>
<path transform="translate(1334,491)" d="m0 0 3 3 1 5-5-1v-6z" fill="#B9999B"/>
<path transform="translate(926,354)" d="m0 0 2 1-3 3-5 2v2h-4v-2h3v-2l5-1v-2z" fill="#81CECA"/>
<path transform="translate(1163,338)" d="m0 0 5 5 6 7h-3v-2l-4-2-4-6z" fill="#ACD1CD"/>
<path transform="translate(1091,334)" d="m0 0 1 2-1 2 4 1 3 3-5-1-6-2v-2z" fill="#CBDCD9"/>
<path transform="translate(1099,266)" d="m0 0 1 2-1 5 4-1-1 3-6-2-1-4z" fill="#DDBFC1"/>
<path transform="translate(1221,224)" d="m0 0 6 1-3 3-10 1 3-2 4-1z" fill="#C1D2CE"/>
<path transform="translate(1103,188)" d="m0 0h2l-1 14h-1v-10l-4-1 1-2z" fill="#D2D5D2"/>
<path transform="translate(1127,159)" d="m0 0 2 1-1 6-4 2 1-6z" fill="#72CBC8"/>
<path transform="translate(1110,147)" d="m0 0h2l1 5-1 15h-1z" fill="#F6EEED"/>
<path transform="translate(1127,141)" d="m0 0h2l-2 10h3v3l-4-2-1-9z" fill="#CCD5D1"/>
<path transform="translate(1127)" d="m0 0h6l1 4-4 1-3-3z" fill="#C2D3D0"/>
<path transform="translate(956,775)" d="m0 0 5 1 2 5h-5l-3-5z" fill="#8C5263"/>
<path transform="translate(997,761)" d="m0 0h2v2h2l-1 5-3 1-1-4-2-2z" fill="#E2D2D0"/>
<path transform="translate(952,742)" d="m0 0h6l-2 2-9 3-4-1z" fill="#E3D3D3"/>
<path transform="translate(1077,277)" d="m0 0 4 1v3l-8-1-1 3v-4z" fill="#CCD5D2"/>
<path transform="translate(1188,272)" d="m0 0 3 1-1 5-5 1 1-5z" fill="#DAD4D2"/>
<path transform="translate(1083,267)" d="m0 0 5 1v2h6l-2 2h-7l-2-1z" fill="#E6D8D9"/>
<path transform="translate(1075,221)" d="m0 0 2 3 2 5-3 1-4-2 1-2 1-4z" fill="#C4D4D0"/>
<path transform="translate(1189,187)" d="m0 0h2v5 3l-6 2v-3h3z" fill="#D2D1CE"/>
<path transform="translate(1074,114)" d="m0 0h2l2 11-2 3-2-9z" fill="#E5E0DF"/>
</svg>
